<svg width="257" height="257" viewBox="0 0 257 257" fill="none" xmlns="http://www.w3.org/2000/svg">
<path d="M225.854 0H30.3159C13.5767 0 0 13.5693 0 30.3159V225.854C0 242.593 13.5693 256.17 30.3159 256.17H225.854C242.593 256.17 256.17 242.601 256.17 225.854V30.3159C256.163 13.5693 242.593 0 225.854 0Z" fill="#111111"/>
<path d="M127.594 195.686C115.907 195.686 106.015 193.649 97.9104 189.56C89.8056 185.485 83.6204 179.638 79.3473 172.033C75.0742 164.429 72.684 155.287 72.1912 144.615C72.0662 139.467 72 133.936 72 128.031C72 122.132 72.0588 116.476 72.1912 111.071C72.6913 100.517 75.111 91.4117 79.4429 83.7482C83.7748 76.0846 89.9968 70.2156 98.1017 66.1264C106.207 62.0446 116.032 60 127.594 60C136.133 60 143.803 61.1326 150.584 63.3905C157.373 65.6557 163.146 68.7594 167.927 72.7236C172.7 76.6804 176.407 81.2991 179.047 86.5724C181.687 91.853 183.07 97.5676 183.195 103.723C183.32 104.856 182.974 105.797 182.158 106.548C181.342 107.298 180.363 107.68 179.238 107.68H161.337C159.954 107.68 158.822 107.335 157.946 106.643C157.064 105.952 156.439 104.79 156.064 103.157C154.049 94.8684 150.599 89.2127 145.694 86.1973C140.795 83.1819 134.698 81.6742 127.41 81.6742C118.989 81.6742 112.267 84.0277 107.244 88.742C102.22 93.4563 99.5138 101.215 99.1387 112.019C98.7636 122.323 98.7636 132.877 99.1387 143.681C99.5138 154.493 102.22 162.244 107.244 166.959C112.267 171.673 118.989 174.027 127.41 174.027C134.698 174.027 140.788 172.489 145.694 169.408C150.592 166.326 154.049 160.707 156.064 152.536C156.439 150.779 157.064 149.587 157.946 148.955C158.822 148.322 159.954 148.006 161.337 148.006H179.238C180.371 148.006 181.342 148.381 182.158 149.138C182.974 149.896 183.32 150.837 183.195 151.963C183.07 158.118 181.687 163.84 179.047 169.114C176.407 174.394 172.7 179.013 167.927 182.97C163.154 186.927 157.373 190.038 150.584 192.303C143.803 194.553 136.133 195.686 127.594 195.686Z" fill="#F7F7F7"/>
</svg>
