<svg width="2251" height="361" viewBox="0 0 2251 361" fill="none" xmlns="http://www.w3.org/2000/svg">
<path d="M116.48 283.34C92.8402 283.34 72.8202 279.22 56.4202 270.95C40.0202 262.7 27.5002 250.88 18.8602 235.49C10.2202 220.1 5.38023 201.61 4.37023 180.01C4.11023 169.59 3.99023 158.4 3.99023 146.44C3.99023 134.5 4.11023 123.06 4.37023 112.12C5.38023 90.77 10.2802 72.34 19.0502 56.83C27.8202 41.33 40.4102 29.44 56.8102 21.17C73.2102 12.91 93.1002 8.78 116.49 8.78C133.77 8.78 149.29 11.07 163.01 15.64C176.74 20.22 188.43 26.51 198.1 34.52C207.76 42.53 215.26 51.87 220.6 62.55C225.94 73.23 228.73 84.79 228.99 97.25C229.24 99.54 228.54 101.44 226.9 102.97C225.24 104.49 223.27 105.26 220.99 105.26H184.76C181.96 105.26 179.67 104.56 177.9 103.16C176.12 101.77 174.85 99.41 174.09 96.11C170.02 79.33 163.03 67.89 153.11 61.79C143.2 55.69 130.86 52.64 116.12 52.64C99.0902 52.64 85.4802 57.41 75.3202 66.94C65.1502 76.47 59.6902 92.18 58.9202 114.04C58.1602 134.89 58.1602 156.24 58.9202 178.1C59.6902 199.97 65.1502 215.67 75.3202 225.2C85.4802 234.74 99.0902 239.51 116.12 239.51C130.86 239.51 143.2 236.4 153.11 230.17C163.02 223.94 170.02 212.57 174.09 196.04C174.85 192.48 176.12 190.07 177.9 188.8C179.68 187.52 181.96 186.89 184.76 186.89H220.99C223.28 186.89 225.24 187.66 226.9 189.18C228.55 190.71 229.25 192.61 228.99 194.9C228.73 207.36 225.94 218.93 220.6 229.6C215.26 240.28 207.76 249.63 198.1 257.63C188.44 265.64 176.74 271.93 163.01 276.51C149.27 281.06 133.76 283.34 116.48 283.34Z" fill="#F7F7F7"/>
<path d="M337.24 283.34C316.9 283.34 299.8 279.78 285.95 272.66C272.09 265.55 261.54 255.5 254.3 242.54C247.05 229.57 242.92 214.45 241.91 197.16C241.65 192.58 241.53 187 241.53 180.38C241.53 173.77 241.65 168.17 241.91 163.59C242.92 146.06 247.18 130.87 254.68 118.02C262.18 105.19 272.85 95.21 286.71 88.08C300.56 80.97 317.41 77.4 337.24 77.4C357.07 77.4 373.91 80.96 387.77 88.08C401.62 95.2 412.3 105.18 419.81 118.02C427.31 130.86 431.56 146.05 432.58 163.59C432.83 168.17 432.96 173.76 432.96 180.38C432.96 186.99 432.83 192.58 432.58 197.16C431.56 214.45 427.43 229.57 420.19 242.54C412.94 255.5 402.39 265.55 388.54 272.66C374.67 279.78 357.57 283.34 337.24 283.34ZM337.24 245.6C350.71 245.6 361.13 241.34 368.51 232.83C375.88 224.31 379.95 211.79 380.71 195.26C380.96 191.45 381.09 186.49 381.09 180.4C381.09 174.3 380.96 169.33 380.71 165.53C379.95 149.26 375.88 136.8 368.51 128.16C361.13 119.52 350.71 115.19 337.24 115.19C323.76 115.19 313.34 119.52 305.97 128.16C298.59 136.8 294.53 149.27 293.76 165.53C293.5 169.34 293.38 174.3 293.38 180.4C293.38 186.49 293.5 191.46 293.76 195.26C294.53 211.79 298.59 224.31 305.97 232.83C313.34 241.34 323.76 245.6 337.24 245.6Z" fill="#F7F7F7"/>
<path d="M460.11 279.54C457.56 279.54 455.4 278.65 453.62 276.87C451.84 275.09 450.95 272.93 450.95 270.38V90.38C450.95 87.84 451.84 85.68 453.62 83.89C455.4 82.11 457.56 81.22 460.11 81.22H491.38C493.92 81.22 496.08 82.11 497.86 83.89C499.64 85.68 500.53 87.83 500.53 90.38V106.02C507.14 97.89 515.59 91.09 525.89 85.61C536.19 80.15 548.96 77.42 564.21 77.42C579.71 77.42 593.19 80.92 604.63 87.9C616.07 94.9 624.9 104.75 631.13 117.46C637.36 130.18 640.47 145.42 640.47 163.22V270.37C640.47 272.91 639.58 275.08 637.8 276.86C636.02 278.64 633.86 279.53 631.32 279.53H597.76C595.22 279.53 593.06 278.64 591.28 276.86C589.5 275.08 588.61 272.92 588.61 270.37V165.52C588.61 150.77 584.98 139.2 577.74 130.82C570.5 122.43 560.01 118.23 546.28 118.23C533.06 118.23 522.51 122.43 514.63 130.82C506.75 139.21 502.81 150.78 502.81 165.52V270.39C502.81 272.93 501.92 275.1 500.14 276.88C498.36 278.66 496.2 279.55 493.65 279.55H460.11V279.54Z" fill="#F7F7F7"/>
<path d="M750.54 279.54C735.28 279.54 722.44 276.87 712.02 271.53C701.59 266.18 693.84 258.24 688.76 247.69C683.67 237.15 681.13 223.99 681.13 208.23V121.66H651C648.46 121.66 646.3 120.78 644.52 118.99C642.74 117.21 641.85 115.06 641.85 112.5V90.39C641.85 87.85 642.74 85.69 644.52 83.9C646.3 82.12 648.46 81.23 651 81.23H681.13V17.93C681.13 15.39 681.95 13.23 683.61 11.45C685.26 9.67 687.49 8.78 690.29 8.78H721.18C723.72 8.78 725.88 9.67 727.67 11.45C729.44 13.23 730.34 15.39 730.34 17.93V81.23H778.01C780.55 81.23 782.71 82.12 784.5 83.9C786.28 85.69 787.17 87.84 787.17 90.39V112.51C787.17 115.06 786.28 117.22 784.5 119C782.72 120.79 780.56 121.67 778.01 121.67H730.34V204.42C730.34 214.85 732.18 222.98 735.87 228.83C739.55 234.68 745.98 237.59 755.13 237.59H781.45C783.99 237.59 786.15 238.49 787.93 240.27C789.71 242.05 790.6 244.21 790.6 246.75V270.4C790.6 272.94 789.71 275.11 787.93 276.89C786.15 278.67 783.99 279.56 781.45 279.56H750.54V279.54Z" fill="#F7F7F7"/>
<path d="M812.61 279.54C810.06 279.54 807.9 278.65 806.12 276.87C804.34 275.09 803.45 272.93 803.45 270.38V90.77C803.45 87.97 804.34 85.69 806.12 83.9C807.9 82.12 810.06 81.23 812.61 81.23H843.5C846.04 81.23 848.27 82.12 850.18 83.9C852.08 85.69 853.04 87.97 853.04 90.77V106.4C858.88 98.28 866.44 92.05 875.73 87.72C885.01 83.4 895.75 81.23 907.95 81.23H923.58C926.38 81.23 928.6 82.12 930.25 83.9C931.9 85.69 932.73 87.84 932.73 90.39V117.84C932.73 120.39 931.9 122.55 930.25 124.33C928.6 126.12 926.37 127 923.58 127H893.84C881.64 127 872.16 130.43 865.43 137.3C858.69 144.16 855.32 153.57 855.32 165.52V270.39C855.32 272.93 854.43 275.1 852.65 276.88C850.87 278.66 848.58 279.55 845.79 279.55H812.61V279.54Z" fill="#F7F7F7"/>
<path d="M998.02 283.34C984.8 283.34 972.85 280.73 962.17 275.53C951.49 270.32 943.04 263.32 936.81 254.55C930.57 245.78 927.46 235.93 927.46 225C927.46 207.21 934.64 193.03 949.01 182.48C963.37 171.93 982.38 164.88 1006.02 161.32L1058.27 153.7V145.69C1058.27 135.01 1055.6 126.75 1050.26 120.9C1044.92 115.06 1035.77 112.13 1022.81 112.13C1013.66 112.13 1006.22 113.98 1000.5 117.66C994.78 121.35 990.52 126.25 987.73 132.34C985.69 135.65 982.78 137.3 978.96 137.3H948.83C946.03 137.3 943.93 136.53 942.54 135C941.14 133.48 940.44 131.45 940.44 128.91C940.69 124.84 942.35 119.88 945.4 114.04C948.45 108.19 953.28 102.54 959.89 97.07C966.5 91.6 975.01 86.96 985.44 83.16C995.86 79.34 1008.44 77.44 1023.19 77.44C1039.21 77.44 1052.75 79.41 1063.81 83.35C1074.87 87.29 1083.7 92.57 1090.31 99.18C1096.92 105.79 1101.75 113.54 1104.8 122.44C1107.85 131.34 1109.38 140.74 1109.38 150.66V270.4C1109.38 272.94 1108.49 275.11 1106.71 276.89C1104.93 278.67 1102.77 279.56 1100.22 279.56H1069.33C1066.53 279.56 1064.31 278.67 1062.66 276.89C1061 275.11 1060.18 272.95 1060.18 270.4V255.53C1056.87 260.37 1052.42 264.87 1046.84 269.07C1041.24 273.26 1034.44 276.69 1026.44 279.36C1018.42 282.01 1008.94 283.34 998.02 283.34ZM1010.98 247.12C1019.87 247.12 1027.95 245.22 1035.2 241.4C1042.45 237.58 1048.17 231.68 1052.36 223.67C1056.55 215.66 1058.65 205.56 1058.65 193.35V185.34L1020.52 191.44C1005.52 193.73 994.33 197.42 986.96 202.5C979.58 207.58 975.9 213.81 975.9 221.18C975.9 226.77 977.62 231.54 981.05 235.49C984.48 239.43 988.87 242.35 994.21 244.26C999.54 246.17 1005.13 247.12 1010.98 247.12Z" fill="#F7F7F7"/>
<path d="M1142.62 351.99C1140.07 351.99 1137.91 351.1 1136.13 349.32C1134.35 347.54 1133.46 345.38 1133.46 342.84V90.39C1133.46 87.85 1134.35 85.69 1136.13 83.9C1137.91 82.12 1140.07 81.23 1142.62 81.23H1172.75C1175.54 81.23 1177.76 82.12 1179.42 83.9C1181.07 85.69 1181.9 87.84 1181.9 90.39V105.65C1188 97.52 1196.01 90.78 1205.92 85.44C1215.83 80.1 1228.16 77.43 1242.91 77.43C1256.38 77.43 1268.08 79.59 1278 83.91C1287.91 88.24 1296.17 94.4 1302.78 102.41C1309.39 110.43 1314.47 119.89 1318.04 130.82C1321.6 141.75 1323.63 153.83 1324.14 167.04C1324.39 171.37 1324.52 175.81 1324.52 180.39C1324.52 184.96 1324.39 189.53 1324.14 194.12C1323.88 206.84 1321.98 218.59 1318.42 229.39C1314.86 240.19 1309.71 249.6 1302.98 257.61C1296.24 265.62 1287.92 271.91 1278 276.49C1268.09 281.06 1256.38 283.35 1242.91 283.35C1229.18 283.35 1217.49 280.88 1207.83 275.92C1198.17 270.96 1190.29 264.41 1184.19 256.28V342.85C1184.19 345.38 1183.36 347.55 1181.71 349.33C1180.06 351.11 1177.83 352 1175.04 352H1142.62V351.99ZM1228.8 242.55C1239.73 242.55 1248.25 240.2 1254.35 235.5C1260.45 230.8 1264.84 224.63 1267.51 217C1270.18 209.37 1271.76 200.98 1272.28 191.83C1272.79 184.2 1272.79 176.57 1272.28 168.95C1271.76 159.8 1270.18 151.41 1267.51 143.77C1264.84 136.15 1260.46 129.98 1254.35 125.27C1248.25 120.57 1239.73 118.22 1228.8 118.22C1218.38 118.22 1209.92 120.64 1203.44 125.47C1196.96 130.3 1192.25 136.47 1189.33 143.97C1186.41 151.47 1184.69 159.16 1184.18 167.04C1183.92 171.62 1183.8 176.45 1183.8 181.53C1183.8 186.62 1183.92 191.58 1184.18 196.4C1184.43 204.02 1186.21 211.33 1189.52 218.33C1192.82 225.33 1197.65 231.1 1204.01 235.68C1210.37 240.26 1218.63 242.55 1228.8 242.55Z" fill="#F7F7F7"/>
<path d="M1431.26 279.54C1416 279.54 1403.16 276.87 1392.74 271.53C1382.31 266.18 1374.56 258.24 1369.48 247.69C1364.39 237.15 1361.85 223.99 1361.85 208.23V121.66H1331.72C1329.18 121.66 1327.02 120.78 1325.24 118.99C1323.46 117.21 1322.57 115.06 1322.57 112.5V90.39C1322.57 87.85 1323.46 85.69 1325.24 83.9C1327.02 82.12 1329.18 81.23 1331.72 81.23H1361.85V17.93C1361.85 15.39 1362.67 13.23 1364.33 11.45C1365.98 9.67 1368.21 8.78 1371.01 8.78H1401.9C1404.44 8.78 1406.6 9.67 1408.39 11.45C1410.16 13.23 1411.06 15.39 1411.06 17.93V81.23H1458.73C1461.27 81.23 1463.43 82.12 1465.22 83.9C1467 85.69 1467.89 87.84 1467.89 90.39V112.51C1467.89 115.06 1467 117.22 1465.22 119C1463.44 120.79 1461.28 121.67 1458.73 121.67H1411.06V204.42C1411.06 214.85 1412.9 222.98 1416.59 228.83C1420.27 234.68 1426.7 237.59 1435.85 237.59H1462.17C1464.71 237.59 1466.87 238.49 1468.65 240.27C1470.43 242.05 1471.32 244.21 1471.32 246.75V270.4C1471.32 272.94 1470.43 275.11 1468.65 276.89C1466.87 278.67 1464.71 279.56 1462.17 279.56H1431.26V279.54Z" fill="#F7F7F7"/>
<path d="M1491.85 48.44C1489.05 48.44 1486.83 47.62 1485.18 45.96C1483.52 44.31 1482.7 42.08 1482.7 39.28V11.83C1482.7 9.29001 1483.52 7.13001 1485.18 5.34001C1486.83 3.56001 1489.05 2.67001 1491.85 2.67001H1526.55C1529.34 2.67001 1531.63 3.56001 1533.41 5.34001C1535.19 7.12001 1536.08 9.28001 1536.08 11.83V39.28C1536.08 42.08 1535.19 44.3 1533.41 45.96C1531.63 47.61 1529.34 48.44 1526.55 48.44H1491.85ZM1493.38 279.54C1490.83 279.54 1488.67 278.65 1486.89 276.87C1485.11 275.09 1484.22 272.93 1484.22 270.38V90.38C1484.22 87.84 1485.11 85.68 1486.89 83.89C1488.67 82.11 1490.83 81.22 1493.38 81.22H1525.03C1527.82 81.22 1530.04 82.11 1531.7 83.89C1533.35 85.68 1534.18 87.83 1534.18 90.38V270.38C1534.18 272.92 1533.35 275.09 1531.7 276.87C1530.04 278.65 1527.82 279.54 1525.03 279.54H1493.38Z" fill="#F7F7F7"/>
<path d="M1647.94 283.34C1627.6 283.34 1610.5 279.78 1596.65 272.66C1582.79 265.55 1572.24 255.5 1565 242.54C1557.75 229.57 1553.62 214.45 1552.61 197.16C1552.35 192.58 1552.23 187 1552.23 180.38C1552.23 173.77 1552.35 168.17 1552.61 163.59C1553.62 146.06 1557.88 130.87 1565.38 118.02C1572.88 105.19 1583.55 95.21 1597.41 88.08C1611.26 80.97 1628.11 77.4 1647.94 77.4C1667.77 77.4 1684.61 80.96 1698.47 88.08C1712.32 95.2 1723 105.18 1730.51 118.02C1738.01 130.86 1742.27 146.05 1743.29 163.59C1743.54 168.17 1743.67 173.76 1743.67 180.38C1743.67 186.99 1743.53 192.58 1743.29 197.16C1742.27 214.45 1738.14 229.57 1730.89 242.54C1723.64 255.5 1713.09 265.55 1699.24 272.66C1685.37 279.78 1668.27 283.34 1647.94 283.34ZM1647.94 245.6C1661.41 245.6 1671.83 241.34 1679.21 232.83C1686.58 224.31 1690.65 211.79 1691.41 195.26C1691.66 191.45 1691.79 186.49 1691.79 180.4C1691.79 174.3 1691.66 169.33 1691.41 165.53C1690.65 149.26 1686.58 136.8 1679.21 128.16C1671.83 119.52 1661.41 115.19 1647.94 115.19C1634.46 115.19 1624.04 119.52 1616.67 128.16C1609.29 136.8 1605.23 149.27 1604.46 165.53C1604.2 169.34 1604.08 174.3 1604.08 180.4C1604.08 186.49 1604.2 191.46 1604.46 195.26C1605.23 211.79 1609.29 224.31 1616.67 232.83C1624.04 241.34 1634.46 245.6 1647.94 245.6Z" fill="#F7F7F7"/>
<path d="M1770.81 279.54C1768.26 279.54 1766.1 278.65 1764.32 276.87C1762.53 275.09 1761.65 272.93 1761.65 270.38V90.38C1761.65 87.84 1762.53 85.68 1764.32 83.89C1766.1 82.11 1768.25 81.22 1770.81 81.22H1802.08C1804.61 81.22 1806.78 82.11 1808.56 83.89C1810.34 85.68 1811.24 87.83 1811.24 90.38V106.02C1817.84 97.89 1826.3 91.09 1836.59 85.61C1846.89 80.15 1859.67 77.42 1874.91 77.42C1890.41 77.42 1903.89 80.92 1915.33 87.9C1926.77 94.9 1935.6 104.75 1941.83 117.46C1948.06 130.17 1951.17 145.42 1951.17 163.22V270.37C1951.17 272.91 1950.28 275.08 1948.5 276.86C1946.72 278.64 1944.56 279.53 1942.02 279.53H1908.45C1905.91 279.53 1903.75 278.64 1901.97 276.86C1900.18 275.08 1899.3 272.92 1899.3 270.37V165.52C1899.3 150.77 1895.67 139.2 1888.43 130.82C1881.19 122.43 1870.7 118.23 1856.96 118.23C1843.74 118.23 1833.19 122.43 1825.32 130.82C1817.43 139.21 1813.5 150.78 1813.5 165.52V270.39C1813.5 272.93 1812.61 275.1 1810.83 276.88C1809.04 278.66 1806.89 279.55 1804.34 279.55H1770.81V279.54Z" fill="#F7F7F7"/>
<path d="M2026.61 281.74C2016.03 281.74 2006.74 279.75 1998.73 275.78C1990.71 271.82 1984.47 266.05 1979.99 258.48C1975.51 250.91 1973.04 241.76 1972.6 231.04C1972.45 228.83 1972.38 225.93 1972.38 222.33C1972.38 218.73 1972.45 215.76 1972.6 213.4C1973.04 202.68 1975.5 193.53 1979.99 185.96C1984.47 178.4 1990.71 172.63 1998.73 168.66C2006.74 164.7 2016.03 162.7 2026.61 162.7C2036.02 162.7 2044.03 164.02 2050.64 166.67C2057.25 169.31 2062.69 172.62 2066.96 176.59C2071.22 180.55 2074.42 184.7 2076.55 189.04C2078.68 193.38 2079.82 197.3 2079.96 200.83C2080.11 202.45 2079.63 203.73 2078.53 204.69C2077.43 205.65 2076.14 206.12 2074.67 206.12H2055.27C2053.8 206.12 2052.66 205.76 2051.86 205.02C2051.05 204.28 2050.28 203.19 2049.54 201.71C2047.33 195.83 2044.43 191.68 2040.83 189.25C2037.23 186.83 2032.64 185.62 2027.05 185.62C2019.7 185.62 2013.86 187.94 2009.53 192.56C2005.19 197.19 2002.89 204.5 2002.59 214.5C2002.3 220.08 2002.3 225.22 2002.59 229.92C2002.88 240.07 2005.19 247.41 2009.53 251.97C2013.87 256.52 2019.7 258.8 2027.05 258.8C2032.78 258.8 2037.41 257.59 2040.94 255.17C2044.46 252.74 2047.33 248.59 2049.54 242.71C2050.28 241.25 2051.04 240.14 2051.86 239.4C2052.66 238.67 2053.8 238.3 2055.27 238.3H2074.67C2076.13 238.3 2077.43 238.78 2078.53 239.73C2079.63 240.69 2080.11 241.98 2079.96 243.59C2079.81 246.24 2079.12 249.21 2077.87 252.52C2076.61 255.83 2074.63 259.21 2071.91 262.66C2069.19 266.11 2065.78 269.27 2061.66 272.14C2057.55 275.01 2052.58 277.32 2046.79 279.09C2040.97 280.86 2034.25 281.74 2026.61 281.74Z" fill="#F7F7F7"/>
<path d="M2142.55 281.74C2130.79 281.74 2120.91 279.68 2112.9 275.57C2104.89 271.46 2098.79 265.65 2094.61 258.15C2090.42 250.65 2088.03 241.91 2087.44 231.91C2087.29 229.27 2087.22 226.04 2087.22 222.22C2087.22 218.4 2087.29 215.17 2087.44 212.53C2088.03 202.38 2090.49 193.6 2094.83 186.19C2099.17 178.77 2105.34 173 2113.34 168.88C2121.35 164.77 2131.09 162.71 2142.55 162.71C2154.01 162.71 2163.74 164.77 2171.75 168.88C2179.77 173 2185.94 178.77 2190.26 186.19C2194.6 193.61 2197.06 202.39 2197.65 212.53C2197.8 215.17 2197.88 218.41 2197.88 222.22C2197.88 226.05 2197.8 229.27 2197.65 231.91C2197.06 241.91 2194.68 250.65 2190.49 258.15C2186.3 265.65 2180.2 271.45 2172.19 275.57C2164.18 279.69 2154.31 281.74 2142.55 281.74ZM2142.55 259.92C2150.33 259.92 2156.36 257.46 2160.62 252.53C2164.88 247.6 2167.23 240.37 2167.67 230.82C2167.82 228.62 2167.89 225.75 2167.89 222.22C2167.89 218.69 2167.82 215.83 2167.67 213.62C2167.23 204.22 2164.87 197.02 2160.62 192.01C2156.35 187.02 2150.33 184.51 2142.55 184.51C2134.76 184.51 2128.74 187.01 2124.48 192.01C2120.21 197.01 2117.87 204.22 2117.43 213.62C2117.28 215.83 2117.2 218.69 2117.2 222.22C2117.2 225.75 2117.28 228.62 2117.43 230.82C2117.87 240.38 2120.22 247.61 2124.48 252.53C2128.74 257.46 2134.76 259.92 2142.55 259.92Z" fill="#F7F7F7"/>
<path d="M2213.76 279.53C2212.29 279.53 2211.04 279.02 2210.01 277.99C2208.98 276.96 2208.47 275.71 2208.47 274.24V252.42C2208.47 250.8 2208.98 249.48 2210.01 248.45C2211.04 247.43 2212.29 246.91 2213.76 246.91H2235.81C2237.27 246.91 2238.53 247.43 2239.56 248.45C2240.58 249.48 2241.1 250.8 2241.1 252.42V274.24C2241.1 275.71 2240.58 276.96 2239.56 277.99C2238.53 279.02 2237.27 279.53 2235.81 279.53H2213.76Z" fill="#F7F7F7"/>
</svg>
