<svg width="1283" height="137" viewBox="0 0 1283 137" fill="none" xmlns="http://www.w3.org/2000/svg">
<path d="M95.2987 10.0784C95.0702 10.4897 94.8645 11.1525 94.6817 12.0666C94.4989 12.9807 94.2932 14.032 94.0646 15.2204C93.8818 16.363 93.6076 17.5971 93.2419 18.9226C92.922 20.2481 92.4878 21.5508 91.9393 22.8306C91.4365 23.8818 90.888 25.413 90.2938 27.4241L89.334 30.9207C88.9683 32.0633 88.557 33.2517 88.0999 34.4858C87.6885 35.7199 86.9801 37.3882 85.9745 39.4907C85.7917 39.7192 85.7003 39.9021 85.7003 40.0392C85.746 40.1306 85.7231 40.3134 85.6317 40.5877L84.809 44.6327C84.5805 45.6383 84.3062 46.621 83.9863 47.5808C83.6663 48.4949 83.4378 49.4319 83.3007 50.3918L82.6151 52.7914C82.4323 53.2027 82.2951 53.6141 82.2037 54.0255C82.158 54.3911 82.1352 54.871 82.1352 55.4652V56.1508C81.7695 57.4306 81.381 58.6419 80.9696 59.7845C80.604 60.9272 79.9184 62.0927 78.9128 63.2811L77.8159 64.5152H77.953C77.7245 64.7437 77.5188 65.0408 77.3359 65.4065C77.1988 65.7264 77.1303 66.2749 77.1303 67.0519C76.7646 67.6461 76.239 68.3546 75.5534 69.1773C74.9135 69.9543 74.4107 70.5942 74.0451 71.097L73.6337 72.6738L71.9197 76.4447L72.0568 76.3075L71.3712 77.6787C71.2341 78.0901 71.1427 78.4786 71.097 78.8443C71.0513 79.1642 70.9827 79.5756 70.8913 80.0784C70.8456 80.5811 70.7313 81.221 70.5485 81.998C70.3656 82.7751 70.0457 83.7806 69.5886 85.0147C69.4515 85.2889 69.3144 85.6317 69.1773 86.0431C69.0402 86.4545 68.9259 86.843 68.8345 87.2086L67.8746 91.1166C67.7832 91.4365 67.5547 91.9164 67.189 92.5563C66.8691 93.1962 66.5034 93.8361 66.0921 94.476L66.2292 94.3389C66.0921 94.6131 65.9321 95.1387 65.7493 95.9158C65.6121 96.6928 65.4293 97.6069 65.2008 98.6582C65.018 99.7094 64.7666 100.852 64.4466 102.086C64.1724 103.275 63.8296 104.44 63.4182 105.583C63.144 106.268 62.8926 107.091 62.6641 108.051C62.4355 108.965 62.207 109.948 61.9785 110.999L62.1156 110.862L61.2928 113.947V113.81L60.8815 115.387C60.7444 115.89 60.653 116.69 60.6072 117.786C60.6072 118.929 60.4244 120.095 60.0588 121.283C59.6931 122.471 59.0304 123.5 58.0705 124.368C57.1564 125.282 55.7166 125.739 53.7512 125.739C52.7 125.739 51.7173 125.511 50.8031 125.054L48.2664 123.614H48.4035C46.301 122.654 44.6327 121.603 43.3986 120.46C42.2103 119.363 41.2276 118.221 40.4505 117.032L40.5877 117.169C40.3134 116.804 40.062 116.392 39.8335 115.935C39.605 115.524 39.4907 115.204 39.4907 114.976C39.4907 113.97 39.5821 112.987 39.7649 112.027C39.9478 111.068 40.1534 110.085 40.382 109.079C40.6105 108.028 40.8162 106.954 40.999 105.857C41.1818 104.76 41.2733 103.595 41.2733 102.36V101.332C41.2733 100.921 41.319 100.372 41.4104 99.6866C41.5475 98.9553 41.7303 98.2925 41.9589 97.6983C41.9589 97.5612 41.9589 97.4012 41.9589 97.2184C41.9589 97.0356 41.9132 96.8299 41.8217 96.6014L42.096 96.8756C42.0046 96.6928 41.9132 96.5328 41.8217 96.3957C41.776 96.2129 41.7075 96.0529 41.6161 95.9158L41.4104 95.5044C41.5475 95.1387 41.6161 94.8188 41.6161 94.5446C41.6618 94.2246 41.6846 93.8818 41.6846 93.5162C41.6846 92.8306 41.6389 91.9621 41.5475 90.9109C41.4561 89.8596 41.3418 88.7169 41.2047 87.4829C41.0676 86.2031 40.9533 84.9233 40.8619 83.6435C40.7705 82.318 40.7248 81.0839 40.7248 79.9412L41.0676 73.7708C40.9762 74.4564 40.7933 75.5305 40.5191 76.9931C40.2449 78.4101 39.9478 79.827 39.6278 81.2439C39.3536 82.6608 39.1022 83.8949 38.8737 84.9461C38.6451 85.9974 38.5537 86.4773 38.5994 86.3859C38.2795 87.0258 38.0509 87.78 37.9138 88.6484L36.8168 92.6934C36.6797 93.1048 36.4055 93.7675 35.9941 94.6817C35.5828 95.5501 35.0571 96.8528 34.4172 98.5896L34.5544 98.4525C34.1887 99.5952 33.7545 100.784 33.2517 102.018C32.7946 103.206 32.1547 104.303 31.332 105.309C30.555 106.268 29.5266 107.068 28.2468 107.708C27.0127 108.348 25.4358 108.668 23.5162 108.668C21.7793 108.668 19.9053 108.325 17.8942 107.64C15.8831 106.954 13.7806 105.651 11.5867 103.732H11.7238C10.7182 102.863 10.2155 102.063 10.2155 101.332C10.2155 100.784 10.3526 100.326 10.6268 99.9608C10.9011 99.5495 11.0382 99.1381 11.0382 98.7267C11.0382 98.5896 11.0153 98.4525 10.9696 98.3154C10.9239 98.1783 10.9011 98.0183 10.9011 97.8355L11.1753 98.1783C11.0839 97.9954 10.9925 97.8126 10.9011 97.6298C10.8554 97.4469 10.7868 97.3098 10.6954 97.2184C10.604 97.0813 10.5354 96.967 10.4897 96.8756C10.6268 96.51 10.6954 96.19 10.6954 95.9158C10.7411 95.6415 10.764 95.3216 10.764 94.9559C10.764 94.1332 10.7183 93.1734 10.6268 92.0764C10.5354 90.9337 10.4212 89.7453 10.284 88.5113C10.1469 87.2772 10.0326 86.0431 9.94123 84.809C9.84982 83.5749 9.80411 82.4094 9.80411 81.3124V77.5416C9.80411 75.4848 9.7127 73.8165 9.52987 72.5367C9.34705 71.2569 9.25563 70.4114 9.25563 70V68.4917C9.25563 66.0235 9.09566 63.4868 8.77571 60.8815C8.50147 58.2305 8.36435 55.5338 8.36435 52.7914C8.36435 50.049 8.18152 47.3523 7.81587 44.7013C7.49592 42.0503 7.03885 39.4221 6.44466 36.8168C5.89618 34.2116 5.27914 31.652 4.59354 29.1381C3.90793 26.5785 3.22233 24.0646 2.53673 21.5965C2.26249 20.5452 2.0111 19.334 1.78257 17.9628C1.59974 16.5459 1.41691 15.2204 1.23408 13.9863C1.05126 12.7065 0.891283 11.6095 0.754163 10.6954C0.617042 9.78126 0.457068 9.25563 0.274241 9.11851C0.0914136 9.0271 0 8.79856 0 8.43291C0 8.06725 0.159974 7.72445 0.479922 7.40451C0.754163 7.03885 1.14267 6.7189 1.64545 6.44466C2.14822 6.17042 2.71956 5.94189 3.35945 5.75906C3.99935 5.57623 4.63924 5.48482 5.27914 5.48482C5.6905 5.48482 6.14757 5.55338 6.65034 5.6905C7.19882 5.78191 7.72445 5.94189 8.22723 6.17042C8.73 6.35325 9.18707 6.58178 9.59843 6.85602C10.0555 7.08455 10.3983 7.3588 10.6268 7.67875L10.764 7.81587C11.1753 9.3699 11.5181 10.764 11.7924 11.998C12.1123 13.1864 12.4094 14.3062 12.6836 15.3575C12.9579 16.4087 13.2093 17.3914 13.4378 18.3056C13.712 19.2197 14.032 20.1567 14.3976 21.1166V20.9794C15.0833 23.4019 15.8146 25.7558 16.5916 28.0411C17.4143 30.3265 18.0313 32.6118 18.4427 34.8972V34.6915L19.7453 38.9422C20.111 40.1763 20.3852 41.3418 20.5681 42.4388C20.7966 43.5357 20.9566 44.4956 21.048 45.3183C21.1394 46.141 21.1851 46.8038 21.1851 47.3066C21.2308 47.7636 21.2994 47.9922 21.3908 47.9922C21.5279 48.5863 21.6422 49.112 21.7336 49.569C21.8707 50.0261 21.9393 50.3004 21.9393 50.3918C21.665 51.0774 21.5279 51.6487 21.5279 52.1058C21.5279 52.1972 21.5508 52.2658 21.5965 52.3115C21.5965 52.3572 21.6193 52.38 21.665 52.38H21.5279C21.8479 53.4313 22.0535 54.2997 22.145 54.9853C22.2821 55.6252 22.3506 56.2194 22.3506 56.7679C22.3963 57.2706 22.4192 57.8191 22.4192 58.4133C22.4649 58.9618 22.5563 59.6474 22.6934 60.4701V63.2811C22.6934 63.921 22.7163 64.4923 22.762 64.9951C22.8077 65.4979 22.8306 65.9549 22.8306 66.3663C22.8306 67.189 22.7849 68.2174 22.6934 69.4515C22.602 70.6399 22.5563 71.9425 22.5563 73.3595C22.5563 74.365 22.5792 75.3477 22.6249 76.3075C22.7163 77.2674 22.8763 78.2501 23.1048 79.2556L24.8874 73.4966C25.1159 72.7196 25.4587 71.8968 25.9158 71.0284C26.3728 70.1143 26.7385 68.9259 27.0127 67.4633V67.7375C27.6069 66.6405 28.1554 65.5207 28.6582 64.3781C29.0695 63.4182 29.458 62.4127 29.8237 61.3614C30.1894 60.3102 30.3722 59.3275 30.3722 58.4133L31.0578 56.1508C31.4691 55.4652 31.7662 54.7568 31.9491 54.0255C32.1319 53.2942 32.3147 52.5857 32.4976 51.9001C32.7261 51.1688 33.0232 50.4375 33.3888 49.7062C33.7545 48.9749 34.3258 48.2664 35.1028 47.5808L34.6915 47.7179C35.1028 47.1237 35.3542 46.6667 35.4456 46.3467C35.5828 45.9811 35.7199 45.5926 35.857 45.1812C35.9941 44.7698 36.1998 44.2899 36.474 43.7414C36.7483 43.1929 37.2282 42.4159 37.9138 41.4104L38.1881 40.5877C39.9706 36.7026 41.3875 33.4803 42.4388 30.9207C43.49 28.3154 44.4042 26.2357 45.1812 24.6817C46.0039 23.1277 46.8038 22.0307 47.5808 21.3908C48.3578 20.7509 49.3862 20.431 50.666 20.431C51.5801 20.431 52.4257 20.7509 53.2027 21.3908C53.9798 22.0307 54.6425 22.8763 55.191 23.9275C55.7395 24.9331 56.1737 26.0757 56.4936 27.3555C56.8136 28.6353 56.9736 29.9151 56.9736 31.1949C56.9736 32.9775 56.8593 34.4629 56.6308 35.6513C56.4479 36.794 56.2194 37.7538 55.9451 38.5309C55.7166 39.3079 55.4652 39.9478 55.191 40.4505C54.9625 40.9533 54.8025 41.4332 54.7111 41.8903H54.8482C54.7568 42.3017 54.6654 42.5988 54.5739 42.7816C54.4825 42.9644 54.3911 43.2615 54.2997 43.6729L52.6543 50.666V51.6944C52.9742 52.5628 53.1799 53.317 53.2713 53.9569C53.3627 54.5968 53.4084 55.191 53.4084 55.7395C53.4084 56.288 53.4084 56.8364 53.4084 57.3849C53.4084 57.8877 53.477 58.459 53.6141 59.0989V62.047C53.6141 62.5955 53.637 63.1211 53.6827 63.6239C53.7284 64.081 53.7512 64.538 53.7512 64.9951C53.7512 66.0464 53.6827 67.5775 53.5455 69.5886C53.4084 71.5997 53.3399 73.7023 53.3399 75.8962C53.3399 77.0846 53.3627 78.2501 53.4084 79.3928C53.4998 80.4897 53.6598 81.4724 53.8883 82.3408L55.8766 72.2625C56.0137 71.3941 56.3108 70.5485 56.7679 69.7258C57.2706 68.8573 57.6592 67.6461 57.9334 66.0921V66.3663C58.0248 66.3663 58.2533 66.0235 58.619 65.3379C58.9847 64.6066 59.3503 63.761 59.716 62.8012C60.1273 61.7956 60.493 60.7672 60.8129 59.716C61.1329 58.619 61.2928 57.7049 61.2928 56.9736L61.9785 54.9167C62.3898 54.1854 62.6869 53.4541 62.8697 52.7228C63.0526 51.9915 63.2582 51.2831 63.4868 50.5975C63.761 49.8661 64.081 49.1348 64.4466 48.4035C64.8123 47.6722 65.3608 46.9409 66.0921 46.2096L65.6121 46.3467C66.0235 45.7982 66.2749 45.364 66.3663 45.0441C66.5034 44.7241 66.6405 44.3813 66.7777 44.0157C66.9148 43.65 67.1205 43.1701 67.3947 42.5759C67.7147 41.9817 68.2403 41.1361 68.9716 40.0392L68.5602 40.3134L69.3144 38.5309C69.4058 38.348 69.5201 38.1652 69.6572 37.9824C69.7486 37.7995 69.84 37.6167 69.9314 37.4339C70.0686 37.2511 70.1828 37.0454 70.2742 36.8168L70.1371 36.954L73.2223 28.4525C73.1309 27.4012 73.3823 26.3271 73.9765 25.2302C74.5707 24.0875 75.142 22.8077 75.6905 21.3908L76.4447 19.7453C76.6732 19.0597 76.9703 18.2599 77.3359 17.3457C77.7016 16.4316 78.1358 15.4489 78.6386 14.3977L79.8041 11.9295C79.9412 11.6095 80.3297 11.0611 80.9696 10.284C81.6095 9.50702 82.2494 8.73 82.8893 7.95299L84.9461 6.44466H84.809C84.9004 6.35325 84.9918 6.23898 85.0832 6.10186C85.2204 5.91903 85.5175 5.46197 85.9745 4.73066L85.4946 5.07346C85.6317 4.57068 85.9974 4.20503 86.5916 3.97649C87.2315 3.74796 87.9399 3.63369 88.7169 3.63369C90.8652 3.63369 92.5335 4.09076 93.7218 5.0049C94.9559 5.87332 95.7329 6.97029 96.0529 8.29578L95.2987 10.0784Z" fill="white"/>
<path d="M108.891 35.1714C108.982 35.0343 109.028 34.8972 109.028 34.76C109.028 34.6229 109.028 34.5086 109.028 34.4172C109.028 34.0973 108.982 33.8002 108.891 33.526C108.845 33.3888 108.799 33.2746 108.754 33.1832L109.028 33.3203L108.617 32.9089C108.388 32.7718 108.228 32.589 108.137 32.3604C108.091 32.1319 108.068 31.9034 108.068 31.6748C108.068 30.9892 108.297 30.4179 108.754 29.9608C109.256 29.5038 109.851 29.1381 110.536 28.8639C111.268 28.5439 112.045 28.3154 112.867 28.1783C113.736 28.0411 114.513 27.9726 115.198 27.9726C116.57 27.9726 118.124 28.3839 119.86 29.2067C121.597 30.0294 123.288 31.0349 124.934 32.2233C126.579 33.366 128.088 34.5772 129.459 35.857C130.83 37.0911 131.858 38.1195 132.544 38.9422C133.55 40.2677 134.418 41.5932 135.149 42.9187C135.881 44.1985 136.315 45.4783 136.452 46.7581C136.452 46.9866 136.452 47.1237 136.452 47.1694C136.452 47.1694 136.406 47.1694 136.315 47.1694C137.183 48.8606 137.686 50.4146 137.823 51.8315C137.96 53.2027 138.029 54.5511 138.029 55.8766V65.6807C138.029 66.9605 138.097 68.0346 138.235 68.903C138.372 69.7715 138.44 70.5942 138.44 71.3712C138.44 72.651 138.189 74.2507 137.686 76.1704C137.183 78.0901 136.543 80.1469 135.766 82.3408L132.544 91.2537C131.95 92.442 131.036 93.6761 129.802 94.9559C128.568 96.2357 127.196 97.4012 125.688 98.4525C124.18 99.5037 122.626 100.372 121.026 101.058C119.426 101.743 118.009 102.086 116.775 102.086H116.295C115.747 102.178 115.221 102.246 114.718 102.292C114.216 102.338 113.667 102.36 113.073 102.36C112.113 102.36 111.176 102.223 110.262 101.949C109.348 101.675 108.502 101.378 107.725 101.058C106.994 100.692 106.354 100.349 105.806 100.029C105.303 99.6637 104.983 99.4123 104.846 99.2752L105.12 99.4123C103.612 98.1325 102.378 96.9442 101.418 95.8472C100.458 94.7045 99.6809 93.7218 99.0867 92.8991C98.4925 92.0307 98.0354 91.2994 97.7155 90.7052C97.4412 90.111 97.2127 89.6996 97.0299 89.4711L96.4128 88.0313L96.5499 88.237C95.9558 86.683 95.5901 85.4489 95.453 84.5348L94.9045 83.0264V83.1636C94.4017 81.5638 93.9675 79.9869 93.6019 78.4329C93.2362 76.8789 93.0534 75.3706 93.0534 73.9079V72.6738C93.0534 72.1254 93.0077 71.4626 92.9163 70.6856C92.8248 69.9086 92.7791 69.1773 92.7791 68.4917C92.7791 64.2409 93.4647 60.0359 94.8359 55.8766C96.2071 51.7173 98.4696 47.5122 101.623 43.2615L103.132 41.7532L102.857 41.8903C103.36 41.2504 103.932 40.5877 104.571 39.9021C105.211 39.1707 106.103 38.2338 107.245 37.0911L108.891 35.1714ZM123.014 59.9216C122.877 58.002 122.717 56.1965 122.534 54.5054C122.351 52.7685 122.009 51.3059 121.506 50.1175L121.917 50.3918C121.506 49.7519 121.209 49.2262 121.026 48.8149C120.889 48.4035 120.82 48.0379 120.82 47.7179C120.82 47.4894 120.843 47.2837 120.889 47.1009C120.935 46.9181 120.957 46.7581 120.957 46.621C120.957 46.5295 120.935 46.461 120.889 46.4153C120.843 46.3696 120.82 46.301 120.82 46.2096H121.095C120.592 45.8439 120.112 45.524 119.655 45.2498C119.198 44.9298 118.786 44.5413 118.421 44.0842L118.146 44.3585C117.918 44.587 117.644 44.7927 117.324 44.9755C117.049 45.1583 116.684 45.4783 116.227 45.9354C115.77 46.3924 115.221 47.078 114.581 47.9922C113.941 48.8606 113.21 50.1404 112.387 51.8315H112.524L110.468 55.3281L110.605 55.191L109.576 56.9736L109.851 56.6993L106.697 67.4633C106.468 68.6059 106.354 69.7715 106.354 70.9598C106.354 71.3255 106.354 71.714 106.354 72.1254C106.354 72.491 106.4 72.8567 106.491 73.2223V73.7708C106.583 74.0451 106.651 74.2736 106.697 74.4564C106.788 74.6392 106.834 74.8449 106.834 75.0735C106.834 75.302 106.811 75.5305 106.765 75.7591C106.72 75.9876 106.697 76.2161 106.697 76.4447C106.697 77.5873 106.834 78.6614 107.108 79.667C107.382 80.6725 107.657 81.7466 107.931 82.8893L108.068 83.3007C108.434 84.4434 108.822 85.5175 109.234 86.523C109.691 87.4829 110.102 88.3056 110.468 88.9912C110.833 89.6768 111.13 90.2024 111.359 90.5681C111.587 90.9337 111.702 91.0708 111.702 90.9794C111.702 91.0708 111.61 91.208 111.428 91.3908C112.982 91.0251 114.421 90.1567 115.747 88.7855C117.072 87.4143 118.421 85.4946 119.792 83.0264L121.232 80.6268L120.82 81.0382V80.3526C120.82 80.2612 120.843 80.1469 120.889 80.0098C120.935 79.8727 120.957 79.7584 120.957 79.667L121.369 76.856C121.643 75.1192 121.757 73.3137 121.712 71.4398C121.712 69.5658 121.917 67.7832 122.329 66.0921L122.603 63.0069L123.014 59.9216Z" fill="white"/>
<path d="M191.486 51.0774C190.343 51.7173 189.04 52.4257 187.578 53.2027C186.115 53.934 184.424 54.7339 182.504 55.6023L185.864 63.144C186.275 64.0581 186.595 64.9037 186.823 65.6807C187.098 66.4577 187.303 67.0976 187.44 67.6004L188.4 72.1254C188.766 72.9481 189.063 73.8394 189.292 74.7992C189.566 75.7591 189.794 76.7417 189.977 77.7473C190.16 78.7071 190.32 79.667 190.457 80.6268C190.64 81.541 190.846 82.3865 191.074 83.1636L192.72 89.0597V88.7855C192.948 89.6082 193.131 90.3395 193.268 90.9794C193.451 91.6193 193.542 92.1907 193.542 92.6934C193.542 92.922 193.542 93.0591 193.542 93.1048C193.542 93.1048 193.497 93.1048 193.405 93.1048C193.588 93.379 193.725 93.6304 193.817 93.859C193.954 94.0875 194.068 94.2018 194.159 94.2018V94.0646L194.434 94.9559H194.296C195.256 97.6983 195.988 100.121 196.49 102.223C197.039 104.326 197.473 106.223 197.793 107.914C198.113 109.605 198.387 111.136 198.616 112.507C198.89 113.879 199.256 115.204 199.713 116.484V116.347C200.033 117.901 200.353 119.318 200.673 120.597C200.993 121.923 201.335 123.203 201.701 124.437L202.112 125.877C202.341 126.654 202.478 127.385 202.524 128.071C202.615 128.802 202.661 129.51 202.661 130.196C202.661 132.024 202.295 133.464 201.564 134.515C200.878 135.566 199.484 136.092 197.382 136.092C196.01 136.092 194.868 136.001 193.954 135.818C193.04 135.681 192.263 135.452 191.623 135.132C191.028 134.858 190.503 134.469 190.046 133.967C189.634 133.51 189.223 132.961 188.812 132.321L188.949 132.458C188.126 131.041 187.395 129.625 186.755 128.208C186.161 126.836 185.658 125.534 185.247 124.3C184.835 123.066 184.515 121.992 184.287 121.077C184.058 120.163 183.944 119.478 183.944 119.021C183.944 118.655 183.967 118.312 184.012 117.992C184.012 117.718 184.012 117.444 184.012 117.169C184.058 116.895 184.081 116.667 184.081 116.484V115.524C184.081 115.25 184.104 114.998 184.15 114.77C184.195 114.541 184.218 114.358 184.218 114.221C184.218 113.673 184.127 113.307 183.944 113.124H184.081C182.847 111.982 182.23 111.045 182.23 110.313C182.23 110.176 182.253 110.085 182.298 110.039C182.344 109.948 182.367 109.856 182.367 109.765C182.367 109.628 182.344 109.514 182.298 109.422C182.253 109.331 182.23 109.216 182.23 109.079L181.956 108.394C181.499 107.251 181.133 106.268 180.859 105.446C180.63 104.623 180.447 103.892 180.31 103.252C180.173 102.566 180.059 101.972 179.967 101.469C179.876 100.966 179.785 100.464 179.693 99.9608L179.282 98.1783V98.3154L178.185 94.476C177.956 93.9732 177.751 93.4019 177.568 92.762C177.385 92.0764 177.225 91.2994 177.088 90.4309L175.237 82.7522C174.323 78.9585 173.431 75.1192 172.563 71.2341C171.694 67.349 170.529 63.6239 169.066 60.0588H168.792C168.426 60.1502 167.947 60.2644 167.352 60.4016C166.804 60.5387 166.164 60.7215 165.433 60.95C164.701 61.1786 163.947 61.4757 163.17 61.8413C162.393 62.207 161.662 62.6869 160.976 63.2811L161.25 63.144L160.702 63.6925L161.662 62.8697C161.57 63.5553 161.525 64.2181 161.525 64.858C161.525 65.4522 161.525 66.0007 161.525 66.5034V67.7375C161.616 68.1946 161.662 68.8116 161.662 69.5886C161.662 70.3199 161.662 70.8227 161.662 71.097L162.073 83.712C162.485 84.9004 162.736 85.9745 162.827 86.9344C162.964 87.8485 163.033 88.7169 163.033 89.5397C163.079 90.3167 163.079 91.0708 163.033 91.8022C163.033 92.4878 163.079 93.1962 163.17 93.9275H163.033C163.033 94.0646 163.056 94.1789 163.102 94.2703C163.147 94.3617 163.17 94.476 163.17 94.6131C163.17 96.2129 162.553 97.5155 161.319 98.5211C160.131 99.4809 158.508 99.9608 156.451 99.9608C155.674 99.9608 154.806 99.8694 153.846 99.6866C152.886 99.5037 151.949 99.1381 151.035 98.5896L149.458 96.0529C148.681 94.7274 148.224 93.8361 148.087 93.379L147.813 91.5965C147.676 90.5909 147.493 89.5168 147.264 88.3741C147.081 87.2315 147.036 86.0659 147.127 84.8776C147.127 84.2834 147.15 83.6892 147.196 83.095C147.241 82.5008 147.264 81.9066 147.264 81.3124C147.264 80.1241 147.15 79.0271 146.921 78.0215C146.739 76.9703 146.647 76.2618 146.647 75.8962L146.373 40.1763V38.2566C145.596 37.9367 145.093 37.5253 144.865 37.0225C144.636 36.474 144.499 35.9713 144.453 35.5142C144.453 35.0114 144.476 34.6001 144.522 34.2801C144.567 33.9145 144.499 33.7316 144.316 33.7316L143.768 31.9491C143.768 31.3549 143.813 30.9664 143.905 30.7835C144.042 30.555 144.225 30.3493 144.453 30.1665C144.682 29.9837 144.979 29.7094 145.344 29.3438C145.756 28.9781 146.236 28.3382 146.784 27.4241H146.647C146.739 27.3327 146.99 27.1727 147.401 26.9442C147.858 26.7156 148.635 26.4185 149.732 26.0529L152.543 23.9275C153.183 23.4247 154.6 23.0591 156.794 22.8306C158.988 22.5563 161.593 22.4192 164.61 22.4192C167.169 22.4192 169.638 22.6477 172.014 23.1048C174.391 23.5619 176.631 24.1789 178.733 24.9559C180.882 25.7329 182.847 26.6242 184.63 27.6298C186.458 28.6353 188.08 29.6866 189.497 30.7835H189.36C191.051 31.9262 192.491 33.1374 193.679 34.4172C194.868 35.6513 195.713 36.8168 196.216 37.9138L196.97 40.999V44.3585C196.97 44.4956 196.879 44.747 196.696 45.1126C196.559 45.4326 196.353 45.8211 196.079 46.2782C195.851 46.7352 195.553 47.238 195.188 47.7865C194.822 48.2893 194.434 48.7463 194.022 49.1577L194.296 49.0206C194.205 49.2491 193.908 49.5233 193.405 49.8433C192.902 50.1632 192.263 50.5746 191.486 51.0774ZM170.026 33.046H167.832C167.101 33.046 166.347 33.1374 165.57 33.3203C164.838 33.5031 164.084 33.7316 163.307 34.0059H163.444C163.079 34.1887 162.782 34.6686 162.553 35.4456C162.325 36.2227 162.119 37.1596 161.936 38.2566C161.799 39.3079 161.708 40.4734 161.662 41.7532C161.616 42.9873 161.57 44.1528 161.525 45.2498C161.525 46.301 161.525 47.238 161.525 48.0607C161.525 48.8377 161.525 49.3405 161.525 49.569L161.662 49.4319C162.576 49.0663 163.444 48.792 164.267 48.6092C165.09 48.4264 165.89 48.335 166.667 48.335H167.832L169.066 47.5808C169.158 47.6265 169.295 47.6494 169.478 47.6494C169.661 47.6951 170.003 47.7179 170.506 47.7179C171.009 47.7179 171.466 47.6722 171.877 47.5808C172.334 47.4437 172.791 47.2609 173.249 47.0323C173.751 46.7581 174.323 46.4153 174.963 46.0039C175.602 45.5468 176.402 44.9984 177.362 44.3585C177.545 44.3128 177.705 44.1985 177.842 44.0157C178.025 43.8328 178.231 43.65 178.459 43.4672C178.733 43.2387 179.053 43.033 179.419 42.8501C179.83 42.6673 180.356 42.5302 180.996 42.4388L179.556 38.9422C178.87 38.0738 178.048 37.2739 177.088 36.5426C176.174 35.8113 175.237 35.1943 174.277 34.6915C173.317 34.1887 172.449 33.8002 171.672 33.526C170.895 33.206 170.346 33.046 170.026 33.046Z" fill="white"/>
<path d="M213.659 101.195L212.425 100.509L212.7 100.646C211.511 99.6866 210.574 98.8639 209.889 98.1783C209.203 97.4469 208.677 96.807 208.312 96.2586C207.946 95.7101 207.695 95.2302 207.558 94.8188C207.466 94.3617 207.42 93.9275 207.42 93.5162C207.558 92.5563 207.603 91.5736 207.558 90.5681C207.558 89.5168 207.603 88.5341 207.695 87.62L208.243 80.2155V80.3526C208.243 80.0326 208.243 79.7356 208.243 79.4613C208.243 79.1414 208.289 78.8443 208.38 78.57C208.472 78.2958 208.632 78.0215 208.86 77.7473C209.134 77.4274 209.523 77.0846 210.026 76.7189L209.889 76.4447L210.163 76.7189C209.889 76.3075 209.614 75.8276 209.34 75.2791C209.066 74.685 208.883 74.3193 208.792 74.1822V72.1254C208.792 69.84 208.952 67.4404 209.272 64.9265C209.591 62.367 209.751 59.8531 209.751 57.3849C209.751 56.4708 209.729 55.5795 209.683 54.7111C209.637 53.7969 209.614 52.9285 209.614 52.1058V46.2096C209.614 45.204 209.637 44.1985 209.683 43.1929C209.729 42.1874 209.751 41.1818 209.751 40.1763C209.751 38.1195 209.66 36.1541 209.477 34.2801C209.294 32.4061 209.203 30.3722 209.203 28.1783C209.203 26.7613 209.249 25.3901 209.34 24.0646C209.432 22.6934 209.614 21.4822 209.889 20.431L209.751 20.5681C209.843 20.0196 209.911 19.4711 209.957 18.9226C210.003 18.3741 210.026 17.8028 210.026 17.2086C210.026 16.5687 209.911 15.9288 209.683 15.2889C209.454 14.6033 209.34 13.9406 209.34 13.3007C209.34 12.7522 209.614 12.2951 210.163 11.9295C210.711 11.5181 211.351 11.1753 212.083 10.9011C212.86 10.6268 213.659 10.4212 214.482 10.284C215.305 10.1469 216.013 10.0784 216.607 10.0784C218.527 10.0784 220.058 10.284 221.201 10.6954C222.344 11.0611 223.212 11.541 223.806 12.1352C224.401 12.7293 224.766 13.3921 224.903 14.1234C225.086 14.8547 225.178 15.5632 225.178 16.2488V18.7855L224.766 25.2302C224.629 26.1443 224.538 27.0584 224.492 27.9726C224.492 28.841 224.492 29.7323 224.492 30.6464C224.492 31.5149 224.492 32.3833 224.492 33.2517C224.538 34.0744 224.629 34.9429 224.766 35.857V38.2566L230.045 33.7316L229.771 33.8688C230.548 33.0917 231.302 32.3833 232.034 31.7434C232.811 31.0578 233.61 30.4636 234.433 29.9608C235.256 29.4123 236.147 28.9553 237.107 28.5896C238.113 28.224 239.232 27.9726 240.466 27.8355C241.701 27.8355 242.98 27.904 244.306 28.0411C245.677 28.1326 246.865 28.4982 247.871 29.1381L247.734 29.001C248.557 29.5495 249.151 30.1208 249.516 30.715C249.882 31.3092 250.065 31.8577 250.065 32.3604C249.836 32.8175 249.654 33.2289 249.516 33.5945C249.425 33.9145 249.288 34.2801 249.105 34.6915C248.968 35.0571 248.739 35.4456 248.419 35.857C248.145 36.2684 247.734 36.7711 247.185 37.3653L244.512 40.1763C243.643 41.1361 242.569 42.0731 241.289 42.9873C240.055 43.8557 238.707 44.8841 237.244 46.0725C235.827 47.2151 234.342 48.5635 232.788 50.1175C231.279 51.6716 229.817 53.5455 228.4 55.7395L229.36 57.6592C230.502 59.2132 231.371 60.8358 231.965 62.5269C232.605 64.2181 233.245 65.7264 233.885 67.0519L234.982 69.4515L234.845 69.3144L239.712 82.2037L240.878 84.5348H240.741L242.798 90.0196C243.62 91.6193 244.283 92.7848 244.786 93.5162V93.379C245.38 94.6131 245.997 95.8472 246.637 97.0813C247.003 97.7669 247.368 98.4525 247.734 99.1381C248.054 99.7323 248.488 100.555 249.036 101.606C249.585 102.658 250.179 103.8 250.819 105.034C251.459 106.268 252.099 107.571 252.739 108.942C253.379 110.268 253.973 111.548 254.521 112.782C255.07 113.97 255.504 115.044 255.824 116.004C256.19 116.964 256.418 117.695 256.51 118.198L256.372 117.992L256.921 120.803C256.921 121.077 256.692 121.352 256.235 121.626C255.778 121.946 255.207 122.22 254.521 122.449C253.881 122.723 253.173 122.928 252.396 123.066C251.619 123.248 250.888 123.34 250.202 123.34C249.059 123.34 248.099 123.02 247.322 122.38L247.871 122.517C246.82 121.877 246.043 121.42 245.54 121.146C245.037 120.872 244.74 120.62 244.649 120.392C243.826 118.975 242.935 117.352 241.975 115.524C241.015 113.696 240.009 111.845 238.958 109.971C237.953 108.097 236.97 106.268 236.01 104.486C235.05 102.658 234.182 101.012 233.405 99.5495C232.673 98.0868 232.056 96.8985 231.554 95.9843C231.097 95.0702 230.845 94.5674 230.799 94.476L230.937 94.6131C230.388 93.7904 229.885 92.7849 229.428 91.5965C228.971 90.4081 228.537 89.1969 228.126 87.9628C227.76 86.7287 227.44 85.5632 227.166 84.4662C226.892 83.3235 226.64 82.4323 226.412 81.7924L223.189 72.2625L224.766 87.3457C224.766 91.7336 224.492 95.5273 223.943 98.7267L224.081 98.4525C224.081 99.778 223.669 100.738 222.846 101.332C222.069 101.926 221.155 102.223 220.104 102.223C219.693 102.223 219.258 102.223 218.801 102.223C218.39 102.178 217.91 102.086 217.362 101.949L213.659 101.195Z" fill="white"/>
<path d="M263.131 9.25563C267.244 5.96474 270.832 3.61084 273.895 2.19393C277.003 0.731308 279.265 0 280.682 0H282.876C283.333 0.0457064 283.859 0.0685596 284.453 0.0685596C285.093 0.0228532 285.733 0.0457064 286.373 0.137119C287.058 0.182826 287.698 0.297092 288.292 0.479918C288.932 0.662749 289.504 0.959843 290.006 1.3712L293.229 4.18217H293.092L298.713 9.11851C299.262 9.48417 299.742 9.89553 300.153 10.3526C300.565 10.8097 300.839 11.2896 300.976 11.7924L303.307 18.237C303.673 19.1512 303.924 20.111 304.061 21.1166C304.244 22.0764 304.335 23.0134 304.335 23.9275C304.335 24.796 304.221 25.5958 303.993 26.3271C303.764 27.0127 303.398 27.8126 302.896 28.7267L299.948 30.3722C299.582 30.5093 299.216 30.6464 298.851 30.7835C298.531 30.875 298.119 30.9207 297.616 30.9207C296.885 30.9207 296.04 30.8064 295.08 30.5779C294.12 30.3036 292.863 29.778 291.309 29.001C291.126 26.4871 290.806 24.0875 290.349 21.8022C289.938 19.4711 289.458 17.4143 288.909 15.6317C288.361 13.8492 287.767 12.4323 287.127 11.381C286.533 10.3297 285.961 9.80411 285.413 9.80411H281.505C281.093 10.4897 280.705 11.3124 280.339 12.2723C280.019 13.1864 279.745 14.2377 279.517 15.4261L278.694 19.334C278.42 20.0196 278.283 20.5224 278.283 20.8423L277.597 30.6464V31.5377C277.597 32.3147 277.643 33.1832 277.734 34.143C277.871 35.0571 278.031 35.9484 278.214 36.8168C278.397 37.6396 278.58 38.3937 278.762 39.0793C278.945 39.7192 279.105 40.1763 279.242 40.4505H279.105L279.517 41.2733C280.934 44.6556 282.51 47.9693 284.247 51.2145C285.984 54.4597 287.607 57.6134 289.115 60.6758C290.669 63.6925 291.995 66.5948 293.092 69.383C294.188 72.1254 294.851 74.7078 295.08 77.1303C295.08 78.6386 295.217 79.5299 295.491 79.8041H295.354C295.902 80.3526 296.268 80.8554 296.451 81.3124C296.679 81.7695 296.817 82.2037 296.862 82.6151C296.954 83.0264 296.999 83.4378 296.999 83.8492C296.999 84.2148 297.068 84.6033 297.205 85.0147H297.068C297.708 86.7058 298.142 88.2599 298.371 89.6768C298.645 91.048 298.851 92.3735 298.988 93.6533V97.4241C298.988 98.8867 299.033 100.281 299.125 101.606C299.216 102.886 299.399 104.166 299.673 105.446C299.628 105.811 299.628 106.108 299.673 106.337C299.719 106.565 299.696 106.863 299.605 107.228C299.559 107.548 299.422 108.005 299.193 108.599C299.011 109.148 298.668 109.902 298.165 110.862L296.725 113.536L297.068 113.399C296.931 113.81 296.679 114.267 296.314 114.77C295.994 115.273 295.605 115.821 295.148 116.415C294.691 117.009 294.188 117.581 293.64 118.129C293.092 118.723 292.543 119.295 291.995 119.843L288.909 122.928C288.544 123.294 287.515 123.888 285.824 124.711L284.316 125.465C283.31 125.968 282.168 126.311 280.888 126.494C279.654 126.722 278.511 126.836 277.46 126.836H274.512C269.667 126.836 265.85 125.922 263.062 124.094C260.274 122.311 258.149 119.592 256.686 115.935C256.458 115.524 256.32 115.113 256.275 114.701C256.183 114.29 256.138 113.901 256.138 113.536C256.138 113.399 256.138 113.239 256.138 113.056C256.138 112.873 256.183 112.713 256.275 112.576L258.4 110.588C258.72 110.588 259.154 110.588 259.703 110.588C260.297 110.588 260.891 110.611 261.485 110.656C262.079 110.702 262.605 110.77 263.062 110.862C263.565 110.908 263.885 110.999 264.022 111.136L263.748 110.999C264.799 111.867 265.553 112.576 266.01 113.124C266.513 113.627 266.856 114.039 267.039 114.358C267.267 114.678 267.404 114.93 267.45 115.113C267.541 115.295 267.701 115.478 267.93 115.661L267.519 115.524C268.387 115.89 269.644 116.21 271.289 116.484C272.523 116.164 273.62 115.684 274.58 115.044C275.54 114.404 276.431 113.536 277.254 112.439C278.123 111.342 278.945 109.993 279.722 108.394C280.545 106.794 281.368 104.874 282.19 102.635C282.83 100.898 283.15 98.9324 283.15 96.7385C283.15 96.2357 283.15 95.7786 283.15 95.3673C283.15 94.9102 283.105 94.4303 283.013 93.9275L282.602 90.1567C282.19 86.1802 281.505 82.6608 280.545 79.5984C279.631 76.4904 278.74 73.7023 277.871 71.2341V71.3712C277.231 70 276.637 68.6059 276.089 67.189C275.586 65.7721 275.014 64.3324 274.375 62.8697L273.346 60.6072H273.483L273.072 59.7845C272.843 59.3732 272.638 59.0075 272.455 58.6876C272.272 58.3676 272.112 57.9791 271.975 57.522L266.216 45.9354C265.165 43.7871 264.319 41.7532 263.679 39.8335C263.039 37.8681 262.537 36.017 262.171 34.2801C261.805 32.4975 261.554 30.8064 261.417 29.2067C261.28 27.5612 261.211 25.9843 261.211 24.476C261.211 22.0078 261.371 19.5397 261.691 17.0715C262.011 14.6033 262.491 11.998 263.131 9.25563Z" fill="white"/>
<path d="M348.417 57.7963C348.691 53.1799 348.919 48.5406 349.102 43.8785C349.285 39.2165 349.696 34.4858 350.336 29.6866C350.428 29.2752 350.473 28.8867 350.473 28.5211C350.473 28.1554 350.473 27.744 350.473 27.287C350.336 26.4643 350.062 25.7329 349.651 25.093C349.285 24.4532 349.102 24.0189 349.102 23.7904C349.102 23.2876 349.605 22.8306 350.61 22.4192C351.662 21.9621 353.079 21.7336 354.861 21.7336C357.329 22.6477 359.249 23.6761 360.62 24.8188C361.991 25.9158 362.997 27.1499 363.637 28.5211C364.277 29.8923 364.688 31.4234 364.871 33.1146C365.054 34.76 365.214 36.5655 365.351 38.5309C365.351 40.8619 365.191 43.0558 364.871 45.1126C364.597 47.1237 364.46 48.9749 364.46 50.666V52.1058C364.46 52.5171 364.437 52.9971 364.391 53.5455C364.391 54.0483 364.277 54.5511 364.048 55.0539V56.4251C364.14 56.7907 364.185 57.1107 364.185 57.3849C364.185 57.6592 364.185 57.9563 364.185 58.2762C364.185 58.9618 364.163 59.6931 364.117 60.4701C364.071 61.2014 364.048 61.8642 364.048 62.4584C364.048 63.0983 364.117 63.6925 364.254 64.2409C364.391 64.7894 364.46 65.2693 364.46 65.6807C364.46 67.2347 364.345 68.8116 364.117 70.4114C363.888 71.9654 363.774 73.4737 363.774 74.9363C363.774 76.3989 363.82 77.7702 363.911 79.0499C364.048 80.284 364.185 81.4724 364.323 82.6151V82.478C364.414 82.8436 364.505 83.1636 364.597 83.4378C364.734 83.6663 364.802 83.8949 364.802 84.1234V87.4829C364.802 88.077 364.825 88.6484 364.871 89.1969C364.917 89.7453 364.94 90.2938 364.94 90.8423V94.2018C364.94 95.2987 364.871 96.6014 364.734 98.1097C364.642 99.618 364.323 101.058 363.774 102.429C363.271 103.8 362.471 104.966 361.374 105.926C360.323 106.885 358.838 107.365 356.918 107.365C355.73 107.365 354.838 107.091 354.244 106.543L351.159 103.046C350.473 102.223 349.971 101.286 349.651 100.235C349.331 99.1381 349.102 97.9954 348.965 96.8071C348.874 95.6187 348.828 94.4303 348.828 93.2419C348.874 92.0535 348.874 90.9337 348.828 89.8825V85.9745C348.828 84.6947 348.805 83.1636 348.759 81.381C348.759 79.5527 348.737 77.7702 348.691 76.0333C348.691 74.2964 348.668 72.7424 348.622 71.3712C348.622 70 348.599 69.1316 348.554 68.7659V68.3546C347.731 68.3546 346.84 68.4917 345.88 68.7659H346.017C344.92 69.0402 343.754 69.1773 342.52 69.1773C341.652 69.1773 340.783 69.1087 339.915 68.9716C339.047 68.8345 338.224 68.7659 337.447 68.7659C336.807 68.7659 336.144 68.8345 335.459 68.9716C334.819 69.1087 334.179 69.1773 333.539 69.1773H332.991C333.128 69.3144 333.219 69.5429 333.265 69.8629C333.31 70.1371 333.402 70.5485 333.539 71.097V73.3595C333.539 73.9079 333.539 74.4336 333.539 74.9363C333.539 75.4391 333.722 75.9419 334.087 76.4447V77.2674C333.996 77.9073 333.927 78.5243 333.882 79.1185C333.836 79.667 333.813 80.2612 333.813 80.9011C333.813 81.9523 333.859 83.0722 333.95 84.2605C334.042 85.4489 334.133 86.5916 334.225 87.6885C334.316 88.7398 334.407 89.6311 334.499 90.3624C334.59 91.0937 334.636 91.5051 334.636 91.5965V92.6934C334.636 93.9732 334.704 95.2302 334.842 96.4642C335.024 97.6983 335.253 98.9096 335.527 100.098H335.39C335.482 100.601 335.55 101.081 335.596 101.538C335.642 101.949 335.664 102.36 335.664 102.772C335.664 104.189 335.207 105.309 334.293 106.131C333.379 106.954 332.145 107.365 330.591 107.365C329.905 107.365 329.243 107.274 328.603 107.091C328.008 106.863 327.46 106.497 326.957 105.994L325.449 104.691H325.586C325.175 104.372 324.718 104.006 324.215 103.595C323.758 103.183 323.324 102.795 322.912 102.429C322.546 102.063 322.227 101.766 321.952 101.538C321.724 101.309 321.587 101.195 321.541 101.195C320.947 100.509 320.421 99.7323 319.964 98.8639C319.507 97.9497 319.278 97.0127 319.278 96.0529C319.278 95.5044 319.347 94.9788 319.484 94.476C319.621 93.9275 319.69 93.379 319.69 92.8306C319.69 92.4192 319.644 91.8707 319.553 91.1851C319.507 90.4995 319.438 89.7911 319.347 89.0597C319.256 88.2827 319.164 87.5286 319.073 86.7973C318.981 86.0659 318.913 85.4261 318.867 84.8776L317.976 68.3546L318.867 68.6288L316.742 66.9148C315.965 66.2749 315.348 65.635 314.891 64.9951C314.434 64.3095 314.022 63.7839 313.657 63.4182L312.971 61.7728C312.971 61.6356 313.131 61.4528 313.451 61.2243C313.771 60.95 314.136 60.6987 314.548 60.4701C315.005 60.2416 315.485 60.0588 315.988 59.9216C316.536 59.7388 317.016 59.6474 317.427 59.6474H317.839V52.2429C317.839 49.9118 317.93 47.6722 318.113 45.524C318.341 43.3758 318.593 41.1361 318.867 38.8051V38.9422C318.867 38.5309 318.958 38.0052 319.141 37.3653C319.324 36.6797 319.53 35.9713 319.758 35.24C320.033 34.5087 320.284 33.8002 320.513 33.1146C320.787 32.429 321.015 31.8348 321.198 31.332L323.049 25.6415C324.375 25.9615 325.472 26.2357 326.34 26.4642C327.209 26.6471 327.871 26.8071 328.328 26.9442C328.831 27.0813 329.174 27.1727 329.357 27.2184C329.585 27.2641 329.722 27.287 329.768 27.287L331.002 28.5896C331.505 29.2752 331.894 29.8237 332.168 30.2351C332.488 30.6007 332.716 30.9664 332.853 31.332C333.036 31.652 333.15 32.0176 333.196 32.429C333.242 32.7946 333.265 33.3203 333.265 34.0059V37.2282C333.265 37.8224 333.379 38.4851 333.608 39.2165C333.836 39.9478 333.95 40.7476 333.95 41.6161C333.95 41.8446 333.927 42.0731 333.882 42.3017C333.836 42.4845 333.813 42.713 333.813 42.9873C333.813 43.6272 333.905 44.2213 334.087 44.7698C334.27 45.2726 334.362 45.9811 334.362 46.8952C334.362 48.3578 334.362 49.9804 334.362 51.763C334.362 53.4998 333.905 55.4652 332.991 57.6592C332.899 57.7506 332.853 57.8877 332.853 58.0705C332.853 58.2991 332.991 58.5504 333.265 58.8247L344.92 58.5504C345.331 58.5504 345.766 58.5504 346.223 58.5504C346.725 58.5504 347.297 58.5047 347.937 58.4133L349.925 56.9736L348.417 57.7963Z" fill="white"/>
<path d="M435.974 21.8707C435.974 22.7391 436.043 23.4933 436.18 24.1332C436.363 24.7731 436.546 25.3673 436.729 25.9158C436.911 26.4185 437.071 26.8756 437.208 27.287C437.391 27.6526 437.483 28.0411 437.483 28.4525C437.483 30.1894 437.62 31.9491 437.894 33.7316L438.58 42.8501V45.2498C438.945 46.8495 439.174 48.1978 439.265 49.2948C439.402 50.3918 439.471 51.3288 439.471 52.1058C439.471 52.9285 439.425 53.8655 439.334 54.9167C439.288 55.9223 439.22 56.8364 439.128 57.6592L438.305 60.333C438.123 60.7444 438.008 61.1329 437.963 61.4985C437.917 61.8185 437.848 62.2298 437.757 62.7326C437.711 63.2354 437.62 63.8981 437.483 64.7209C437.346 65.4979 437.117 66.5491 436.797 67.8746C436.569 68.6517 436.34 69.4972 436.112 70.4114C435.883 71.2798 435.654 72.2853 435.426 73.428C435.197 74.525 435.015 75.8048 434.877 77.2674C434.74 78.6843 434.672 80.3297 434.672 82.2037C434.672 82.8436 434.58 83.5978 434.398 84.4662C434.215 85.3346 433.94 86.1117 433.575 86.7973L431.175 92.4192C430.947 92.8306 430.627 93.3105 430.215 93.859C429.85 94.4074 429.278 95.1388 428.501 96.0529L428.776 95.9158L422.331 106.405C421.508 107.777 420.434 108.965 419.109 109.971C417.783 110.976 416.389 111.799 414.926 112.439C413.51 113.079 412.093 113.559 410.676 113.879C409.304 114.198 408.116 114.358 407.111 114.358C402.357 114.358 398.289 113.559 394.907 111.959C391.525 110.359 388.714 108.325 386.474 105.857C384.234 103.343 382.475 100.578 381.195 97.5612C379.961 94.5446 379.069 91.6193 378.521 88.7855H378.658C377.972 85.129 377.447 81.6781 377.081 78.4329C376.761 75.142 376.601 71.9197 376.601 68.7659C376.556 67.0291 376.601 65.3608 376.738 63.761C376.875 62.1156 377.058 60.493 377.287 58.8932C377.515 57.2478 377.767 55.6024 378.041 53.9569C378.315 52.3115 378.567 50.5746 378.795 48.7463L379.549 43.6729C380.006 42.8959 380.326 42.1645 380.509 41.4789C380.692 40.7933 380.875 40.0849 381.058 39.3536C381.286 38.5766 381.538 37.731 381.812 36.8168C382.132 35.9027 382.635 34.8286 383.32 33.5945V33.7316C383.457 33.4574 383.617 32.8861 383.8 32.0176C384.029 31.1492 384.28 30.2351 384.554 29.2752L384.966 27.6983V27.8355C384.966 27.3327 385.194 26.6242 385.651 25.7101C386.154 24.796 387 23.7447 388.188 22.5563V22.2821C388.188 22.0535 388.142 21.7336 388.051 21.3222C387.959 20.8652 387.914 20.431 387.914 20.0196C387.914 19.6996 388.051 19.3797 388.325 19.0597C388.599 18.6941 388.965 18.3741 389.422 18.0999C389.879 17.8257 390.382 17.62 390.93 17.4829C391.525 17.3 392.119 17.2086 392.713 17.2086H393.261C393.261 17.0715 393.627 16.5687 394.358 15.7003H394.221L395.044 14.3977L394.907 14.5348C395.135 14.1691 395.501 13.8035 396.004 13.4378C396.507 13.0264 397.215 12.478 398.129 11.7924L397.581 11.9295C397.398 12.1123 397.215 12.2037 397.032 12.2037C396.941 12.2037 396.895 12.1123 396.895 11.9295C396.895 11.4724 397.032 11.0839 397.306 10.764C397.626 10.444 397.992 10.1698 398.403 9.94123C398.86 9.66699 399.318 9.39275 399.775 9.11851C400.277 8.84427 400.712 8.52432 401.077 8.15866L406.699 6.0333C407.248 5.53052 407.979 5.09631 408.893 4.73066C409.807 4.365 410.881 4.18217 412.115 4.18217C414.035 4.18217 415.863 4.43356 417.6 4.93634C419.337 5.43911 420.937 6.05615 422.399 6.78746C423.862 7.47307 425.188 8.20437 426.376 8.98139C427.564 9.7584 428.57 10.3983 429.393 10.9011L435.974 21.8707ZM420.823 25.9158C420.594 24.8188 420.411 23.7447 420.274 22.6934C420.137 21.5965 419.954 20.6138 419.726 19.7453C419.543 18.8769 419.269 18.1685 418.903 17.62C418.583 17.0715 418.149 16.7973 417.6 16.7973C416.412 16.7973 415.064 17.0944 413.555 17.6885C412.047 18.2827 410.699 19.1055 409.51 20.1567L409.784 20.0196L406.014 23.2419C403.865 24.9788 402.014 27.1498 400.46 29.7551C398.906 32.3147 397.581 35.24 396.484 38.5309V38.3937L395.455 40.8619C394.541 43.2844 393.764 45.8668 393.124 48.6092C392.53 51.3516 392.027 54.1169 391.616 56.905C391.25 59.6931 390.976 62.4584 390.793 65.2008C390.656 67.9432 390.588 70.5256 390.588 72.9481C390.588 74.8678 390.633 76.7646 390.725 78.6386C390.862 80.4669 391.136 82.2494 391.547 83.9863V84.2605C391.547 85.3575 391.662 86.4773 391.89 87.62C392.164 88.7169 392.484 89.8139 392.85 90.9109C393.216 91.9621 393.627 92.9677 394.084 93.9275C394.541 94.8874 394.953 95.7786 395.318 96.6014H395.181C395.912 98.2925 396.872 99.6637 398.061 100.715C399.295 101.721 400.529 102.68 401.763 103.595H401.626C401.717 103.64 401.763 103.663 401.763 103.663V103.732L402.311 104.006L401.969 103.732C402.38 103.732 402.746 103.754 403.065 103.8C403.431 103.846 403.751 103.869 404.025 103.869H403.888C404.574 103.275 405.465 102.36 406.562 101.126C407.659 99.8466 408.779 98.3611 409.922 96.6699C411.064 94.9788 412.138 93.1277 413.144 91.1166C414.195 89.1055 415.018 87.0715 415.612 85.0147C415.521 85.0147 415.543 84.8776 415.681 84.6033C415.818 84.2834 416.001 83.9863 416.229 83.712H416.366C416.686 83.1179 416.938 82.4323 417.12 81.6552C417.349 80.8782 417.6 80.0098 417.875 79.0499C418.194 78.0444 418.583 76.9474 419.04 75.7591C419.543 74.5707 420.228 73.268 421.097 71.8511L421.782 65.9549C422.24 63.8524 422.582 61.8642 422.811 59.9902C423.085 58.1162 423.222 56.4251 423.222 54.9167V45.7982C423.222 45.0212 423.176 44.587 423.085 44.4956C422.445 43.033 421.965 41.5246 421.645 39.9706C421.371 38.4166 421.234 36.9083 421.234 35.4456V32.9089C421.234 32.1319 421.234 31.3777 421.234 30.6464C421.234 29.8694 421.188 29.0924 421.097 28.3154V28.4525L420.823 25.9158Z" fill="white"/>
<path d="M445.862 68.6288C445.862 66.4806 445.862 64.1267 445.862 61.5671C445.908 58.9618 445.885 56.4251 445.794 53.9569C445.702 51.443 445.52 49.112 445.245 46.9638C445.017 44.8155 444.628 43.1244 444.08 41.8903C443.623 40.8848 443.234 40.0392 442.914 39.3536C442.594 38.668 442.343 38.0738 442.16 37.571C442.023 37.0225 441.909 36.5655 441.817 36.1998C441.772 35.7884 441.772 35.3999 441.817 35.0343C441.817 33.8916 442.183 32.7946 442.914 31.7434C443.691 30.6464 444.811 29.778 446.274 29.1381H445.999C447.828 28.224 449.885 27.4927 452.17 26.9442C454.455 26.35 456.786 26.0529 459.163 26.0529C459.986 26.0529 460.854 26.0529 461.768 26.0529C462.682 26.0529 463.574 26.0757 464.442 26.1215C465.356 26.1215 466.202 26.19 466.979 26.3271C467.756 26.4185 468.373 26.5557 468.83 26.7385C469.059 26.8756 469.31 27.0127 469.584 27.1499C469.904 27.2413 470.11 27.287 470.201 27.287C474.315 27.9726 477.811 29.1152 480.691 30.715C483.57 32.269 485.924 33.9602 487.753 35.7884C489.581 37.571 490.929 39.3536 491.798 41.1361C492.712 42.873 493.26 44.2899 493.443 45.3869L493.717 47.1694V47.855C493.717 49.5462 493.306 51.3745 492.483 53.3399H492.62C492.483 53.7055 492.415 54.0255 492.415 54.2997C492.415 54.5282 492.346 54.8025 492.209 55.1224C492.072 55.4424 491.798 55.8309 491.386 56.2879C491.021 56.6993 490.358 57.2478 489.398 57.9334C488.941 58.2991 488.461 58.7333 487.958 59.236C487.456 59.7388 486.839 60.333 486.107 61.0186C485.376 61.6585 484.507 62.367 483.502 63.144C482.496 63.921 481.285 64.7666 479.868 65.6807C479.96 65.6807 480.028 65.6579 480.074 65.6121C480.12 65.5664 480.188 65.5436 480.28 65.5436C480.28 65.7721 480.12 66.0235 479.8 66.2977C479.48 66.572 479.114 66.8462 478.703 67.1205C478.291 67.349 477.88 67.5775 477.469 67.8061C477.103 67.9889 476.874 68.126 476.783 68.2174L471.367 71.3712H471.23C470.727 71.5997 470.315 71.7826 469.996 71.9197C469.721 72.0568 469.493 72.1711 469.31 72.2625C469.127 72.3996 468.967 72.491 468.83 72.5367V72.6738C468.921 72.6738 468.99 72.651 469.036 72.6053C469.081 72.5596 469.15 72.5367 469.241 72.5367C468.876 72.9481 468.236 73.3366 467.322 73.7022C466.408 74.0679 465.402 74.3879 464.305 74.6621C463.254 74.8906 462.225 75.0963 461.22 75.2791C460.214 75.4163 459.483 75.4848 459.026 75.4848C459.072 75.5762 459.072 76.0333 459.026 76.856C459.026 77.6787 459.026 78.7529 459.026 80.0784C459.072 81.3581 459.14 82.8208 459.232 84.4662C459.323 86.0659 459.483 87.6885 459.712 89.334V90.8423C459.712 91.665 459.643 92.5563 459.506 93.5162C459.414 94.476 459.14 95.3901 458.683 96.2586C458.226 97.127 457.518 97.8583 456.558 98.4525C455.644 99.001 454.364 99.2752 452.718 99.2752C451.804 99.2752 450.936 99.0238 450.113 98.5211C449.29 98.0183 448.49 97.3327 447.713 96.4642L447.234 95.6415H447.439C446.982 94.4989 446.571 93.3333 446.205 92.145C445.885 90.9566 445.725 89.8368 445.725 88.7855C445.725 88.2827 445.748 87.78 445.794 87.2772C445.839 86.7287 445.862 86.2031 445.862 85.7003V68.6288ZM460.26 54.7111L460.397 62.4584L461.426 62.1841C462.66 62.047 464.099 61.6814 465.745 61.0872C467.436 60.493 469.15 59.6017 470.887 58.4133C472.624 57.1792 474.269 55.6252 475.823 53.7512C477.423 51.8772 478.726 49.5919 479.731 46.8952C479.731 46.8038 479.754 46.7124 479.8 46.621C479.845 46.5295 479.868 46.4381 479.868 46.3467C479.868 45.8439 479.777 45.3869 479.594 44.9755C479.411 44.5642 479.274 44.2214 479.183 43.9471H479.32C479.045 43.5357 478.908 43.2158 478.908 42.9873C478.908 42.8959 478.931 42.8273 478.977 42.7816C478.977 42.7359 479 42.713 479.046 42.713L477.4 42.0274C476.577 41.7075 475.892 41.4332 475.343 41.2047C474.795 40.9762 474.269 40.7933 473.766 40.6562C473.309 40.5191 472.852 40.4277 472.395 40.382C471.938 40.3363 471.412 40.3134 470.818 40.3134C469.538 40.3134 467.916 40.5191 465.951 40.9305C463.985 41.2961 461.86 41.5704 459.574 41.7532L459.163 42.1645C459.666 43.7186 459.963 45.0898 460.054 46.2782C460.191 47.4208 460.26 48.5178 460.26 49.569V54.7111Z" fill="white"/>
<path d="M686.555 97.3931C679.948 97.3931 674.353 96.2387 669.769 93.9214C665.185 91.6097 661.686 88.2977 659.271 83.9853C656.856 79.6729 655.504 74.4919 655.221 68.4395C655.149 65.5198 655.115 62.3843 655.115 59.033C655.115 55.6874 655.149 52.4818 655.221 49.4164C655.504 43.434 656.873 38.2698 659.324 33.9238C661.776 29.5806 665.294 26.249 669.878 23.9317C674.462 21.6172 680.021 20.46 686.558 20.46C691.388 20.46 695.725 21.1016 699.56 22.3822C703.398 23.6655 706.665 25.428 709.367 27.6724C712.067 29.9169 714.164 32.534 715.656 35.5266C717.149 38.5192 717.928 41.7584 718.001 45.2497C718.071 45.8914 717.875 46.4238 717.417 46.8525C716.953 47.2784 716.402 47.4942 715.765 47.4942H705.639C704.856 47.4942 704.216 47.298 703.722 46.9057C703.224 46.5163 702.869 45.855 702.657 44.9303C701.519 40.2284 699.566 37.0229 696.793 35.3136C694.023 33.6044 690.574 32.7498 686.455 32.7498C681.695 32.7498 677.891 34.0863 675.051 36.7567C672.209 39.4271 670.683 43.8291 670.468 49.9544C670.255 55.7967 670.255 61.779 670.468 67.9043C670.683 74.0324 672.209 78.4316 675.051 81.102C677.891 83.7752 681.695 85.1117 686.455 85.1117C690.574 85.1117 694.023 84.2403 696.793 82.4946C699.563 80.7489 701.519 77.563 702.657 72.9312C702.869 71.9337 703.224 71.2584 703.722 70.9025C704.219 70.5439 704.856 70.3673 705.639 70.3673H715.765C716.405 70.3673 716.953 70.5831 717.417 71.009C717.878 71.4377 718.074 71.9701 718.001 72.6118C717.928 76.1031 717.149 79.3451 715.656 82.3349C714.164 85.3275 712.067 87.9474 709.367 90.1891C706.668 92.4335 703.398 94.196 699.56 95.4793C695.72 96.7543 691.385 97.3931 686.555 97.3931Z" fill="#F7F7F7" fill-opacity="0.968627"/>
<path d="M748.256 97.393C742.571 97.393 737.792 96.3954 733.921 94.4004C730.047 92.4081 727.098 89.5921 725.075 85.9606C723.049 82.3263 721.894 78.0896 721.612 73.2449C721.539 71.9615 721.506 70.398 721.506 68.543C721.506 66.6909 721.539 65.1217 721.612 63.8384C721.894 58.9264 723.085 54.6701 725.181 51.0694C727.277 47.4744 730.26 44.678 734.133 42.6801C738.004 40.6878 742.714 39.6875 748.256 39.6875C753.798 39.6875 758.505 40.685 762.379 42.6801C766.25 44.6752 769.235 47.4716 771.334 51.0694C773.43 54.6673 774.618 58.9236 774.903 63.8384C774.973 65.1217 775.009 66.6881 775.009 68.543C775.009 70.3952 774.973 71.9615 774.903 73.2449C774.618 78.0896 773.463 82.3263 771.44 85.9606C769.414 89.5921 766.465 92.4081 762.594 94.4004C758.717 96.3954 753.938 97.393 748.256 97.393ZM748.256 86.818C752.021 86.818 754.933 85.6244 756.996 83.2398C759.056 80.8525 760.193 77.3443 760.406 72.7125C760.475 71.6449 760.512 70.2551 760.512 68.5486C760.512 66.8394 760.475 65.4468 760.406 64.382C760.193 59.8231 759.056 56.3317 756.996 53.9107C754.933 51.4897 752.021 50.2765 748.256 50.2765C744.489 50.2765 741.576 51.4897 739.516 53.9107C737.454 56.3317 736.319 59.8259 736.104 64.382C736.031 65.4496 735.998 66.8394 735.998 68.5486C735.998 70.2551 736.031 71.6477 736.104 72.7125C736.319 77.3443 737.454 80.8525 739.516 83.2398C741.576 85.6244 744.489 86.818 748.256 86.818Z" fill="#F7F7F7" fill-opacity="0.968627"/>
<path d="M782.597 96.3284C781.885 96.3284 781.281 96.0791 780.783 95.5803C780.286 95.0815 780.037 94.4763 780.037 93.7618V43.3248C780.037 42.6131 780.286 42.0079 780.783 41.5063C781.281 41.0075 781.885 40.7581 782.597 40.7581H791.337C792.047 40.7581 792.651 41.0075 793.148 41.5063C793.646 42.0079 793.894 42.6103 793.894 43.3248V47.7072C795.742 45.4292 798.103 43.5238 800.982 41.9882C803.861 40.4583 807.43 39.6934 811.692 39.6934C816.025 39.6934 819.792 40.6741 822.989 42.6299C826.187 44.5913 828.655 47.3514 830.396 50.9128C832.137 54.477 833.006 58.7473 833.006 63.735V93.759C833.006 94.4707 832.758 95.0787 832.26 95.5775C831.763 96.0763 831.159 96.3256 830.449 96.3256H821.069C820.359 96.3256 819.756 96.0763 819.258 95.5775C818.761 95.0787 818.512 94.4735 818.512 93.759V64.3794C818.512 60.2464 817.497 57.0044 815.474 54.6563C813.45 52.3054 810.519 51.1285 806.681 51.1285C802.986 51.1285 800.038 52.3054 797.835 54.6563C795.633 57.0072 794.532 60.2492 794.532 64.3794V93.7646C794.532 94.4763 794.283 95.0843 793.785 95.5831C793.288 96.0819 792.684 96.3312 791.971 96.3312H782.597V96.3284Z" fill="#F7F7F7" fill-opacity="0.968627"/>
<path d="M863.77 96.3284C859.505 96.3284 855.916 95.5802 853.004 94.0839C850.088 92.5848 847.922 90.36 846.503 87.4038C845.08 84.4504 844.37 80.7629 844.37 76.3469V52.0895H835.949C835.239 52.0895 834.635 51.843 834.138 51.3414C833.64 50.8426 833.392 50.2402 833.392 49.5229V43.3275C833.392 42.6158 833.64 42.0106 834.138 41.509C834.635 41.0102 835.239 40.7608 835.949 40.7608H844.37V23.0238C844.37 22.3121 844.599 21.7069 845.063 21.2081C845.524 20.7093 846.148 20.46 846.93 20.46H855.564C856.274 20.46 856.877 20.7093 857.378 21.2081C857.872 21.7069 858.124 22.3121 858.124 23.0238V40.7608H871.447C872.157 40.7608 872.761 41.0102 873.261 41.509C873.759 42.0106 874.007 42.613 874.007 43.3275V49.5257C874.007 50.2402 873.759 50.8454 873.261 51.3442C872.764 51.8458 872.16 52.0923 871.447 52.0923H858.124V75.2793C858.124 78.2019 858.638 80.4799 859.669 82.1191C860.698 83.7583 862.495 84.5737 865.052 84.5737H872.409C873.119 84.5737 873.722 84.8259 874.22 85.3247C874.717 85.8235 874.966 86.4287 874.966 87.1404V93.7673C874.966 94.479 874.717 95.087 874.22 95.5858C873.722 96.0846 873.119 96.334 872.409 96.334H863.77V96.3284Z" fill="#F7F7F7" fill-opacity="0.968627"/>
<path d="M881.118 96.3283C880.405 96.3283 879.801 96.0789 879.304 95.5801C878.806 95.0813 878.558 94.4761 878.558 93.7616V43.4339C878.558 42.6493 878.806 42.0105 879.304 41.5089C879.801 41.0101 880.405 40.7607 881.118 40.7607H889.751C890.461 40.7607 891.084 41.0101 891.618 41.5089C892.149 42.0105 892.418 42.6493 892.418 43.4339V47.8135C894.05 45.5382 896.163 43.7926 898.759 42.5793C901.353 41.3688 904.355 40.7607 907.765 40.7607H912.133C912.916 40.7607 913.536 41.0101 913.997 41.5089C914.458 42.0105 914.69 42.6129 914.69 43.3274V51.0191C914.69 51.7336 914.458 52.3388 913.997 52.8376C913.536 53.3392 912.913 53.5857 912.133 53.5857H903.821C900.411 53.5857 897.762 54.5468 895.881 56.4719C893.997 58.3941 893.055 61.0308 893.055 64.3792V93.7644C893.055 94.4761 892.806 95.0841 892.309 95.5829C891.811 96.0817 891.171 96.331 890.391 96.331H881.118V96.3283Z" fill="#F7F7F7" fill-opacity="0.968627"/>
<path d="M932.939 97.3935C929.244 97.3935 925.904 96.6622 922.919 95.2051C919.934 93.7452 917.572 91.7838 915.831 89.3264C914.087 86.869 913.218 84.109 913.218 81.0463C913.218 76.0615 915.225 72.0881 919.241 69.132C923.254 66.1758 928.567 64.2004 935.175 63.2028L949.778 61.0677V58.8232C949.778 55.8306 949.032 53.5161 947.539 51.8769C946.047 50.2405 943.49 49.4195 939.867 49.4195C937.31 49.4195 935.231 49.9379 933.632 50.9691C932.033 52.003 930.843 53.376 930.063 55.0825C929.493 56.01 928.679 56.4723 927.612 56.4723H919.191C918.408 56.4723 917.821 56.2565 917.433 55.8278C917.041 55.4019 916.846 54.8331 916.846 54.1214C916.915 52.981 917.379 51.5911 918.232 49.9547C919.084 48.3155 920.434 46.7324 922.282 45.1996C924.129 43.6669 926.508 42.3668 929.423 41.302C932.335 40.2316 935.851 39.6992 939.974 39.6992C944.451 39.6992 948.235 40.2512 951.327 41.3552C954.418 42.4592 956.886 43.9387 958.733 45.7909C960.581 47.643 961.93 49.8146 962.783 52.3085C963.635 54.8023 964.063 57.4362 964.063 60.2159V93.7676C964.063 94.4794 963.814 95.0874 963.317 95.5862C962.819 96.0849 962.216 96.3343 961.503 96.3343H952.869C952.087 96.3343 951.466 96.0849 951.005 95.5862C950.541 95.0874 950.312 94.4822 950.312 93.7676V89.601C949.387 90.9572 948.143 92.2181 946.584 93.395C945.018 94.569 943.118 95.5301 940.882 96.2783C938.64 97.0208 935.991 97.3935 932.939 97.3935ZM936.561 87.2445C939.046 87.2445 941.304 86.7121 943.33 85.6417C945.357 84.5713 946.955 82.9181 948.126 80.6736C949.297 78.4292 949.884 75.5991 949.884 72.1778V69.9334L939.227 71.6426C935.035 72.2843 931.907 73.3183 929.848 74.7417C927.785 76.1651 926.756 77.9108 926.756 79.9759C926.756 81.5423 927.237 82.8789 928.196 83.9857C929.154 85.0897 930.381 85.9079 931.874 86.4431C933.364 86.9783 934.926 87.2445 936.561 87.2445Z" fill="#F7F7F7" fill-opacity="0.968627"/>
<path d="M973.353 116.629C972.64 116.629 972.037 116.38 971.539 115.881C971.042 115.383 970.793 114.777 970.793 114.066V43.3277C970.793 42.616 971.042 42.0108 971.539 41.5092C972.037 41.0105 972.64 40.7611 973.353 40.7611H981.774C982.554 40.7611 983.174 41.0105 983.638 41.5092C984.1 42.0108 984.332 42.6132 984.332 43.3277V47.6037C986.036 45.3256 988.275 43.437 991.045 41.9407C993.815 40.4444 997.261 39.6963 1001.38 39.6963C1005.15 39.6963 1008.42 40.3015 1011.19 41.512C1013.96 42.7253 1016.27 44.4514 1018.12 46.6958C1019.96 48.9431 1021.38 51.5938 1022.38 54.6565C1023.38 57.7191 1023.94 61.104 1024.09 64.8055C1024.16 66.0188 1024.19 67.2629 1024.19 68.5462C1024.19 69.8268 1024.16 71.1073 1024.09 72.3934C1024.01 75.9577 1023.48 79.2501 1022.49 82.2763C1021.49 85.3025 1020.05 87.9392 1018.17 90.1837C1016.29 92.4281 1013.96 94.1906 1011.19 95.474C1008.42 96.7545 1005.15 97.3962 1001.38 97.3962C997.546 97.3962 994.279 96.7041 991.579 95.3142C988.879 93.9244 986.677 92.0891 984.972 89.811V114.068C984.972 114.777 984.74 115.385 984.278 115.884C983.817 116.383 983.194 116.632 982.414 116.632H973.353V116.629ZM997.44 85.9638C1000.49 85.9638 1002.88 85.3053 1004.58 83.9883C1006.29 82.6714 1007.51 80.9425 1008.26 78.8045C1009.01 76.6666 1009.45 74.3157 1009.59 71.7518C1009.73 69.6138 1009.73 67.4758 1009.59 65.3407C1009.45 62.7768 1009.01 60.4259 1008.26 58.2851C1007.51 56.1499 1006.29 54.4211 1004.58 53.1013C1002.88 51.7843 1000.49 51.1259 997.44 51.1259C994.527 51.1259 992.163 51.804 990.352 53.1574C988.541 54.5107 987.224 56.2396 986.408 58.3411C985.592 60.4427 985.111 62.5975 984.969 64.8055C984.896 66.0888 984.863 67.4422 984.863 68.8657C984.863 70.2919 984.896 71.6817 984.969 73.0323C985.039 75.1675 985.536 77.2158 986.461 79.1772C987.384 81.1386 988.734 82.7554 990.511 84.0388C992.289 85.3221 994.597 85.9638 997.44 85.9638Z" fill="#F7F7F7" fill-opacity="0.968627"/>
<path d="M1054.03 96.3284C1049.76 96.3284 1046.17 95.5802 1043.26 94.0839C1040.35 92.5848 1038.18 90.36 1036.76 87.4038C1035.34 84.4504 1034.63 80.7629 1034.63 76.3469V52.0895H1026.21C1025.5 52.0895 1024.89 51.843 1024.39 51.3414C1023.9 50.8426 1023.65 50.2402 1023.65 49.5229V43.3275C1023.65 42.6158 1023.9 42.0106 1024.39 41.509C1024.89 41.0102 1025.5 40.7608 1026.21 40.7608H1034.63V23.0238C1034.63 22.3121 1034.86 21.7069 1035.32 21.2081C1035.78 20.7093 1036.4 20.46 1037.19 20.46H1045.82C1046.53 20.46 1047.13 20.7093 1047.63 21.2081C1048.13 21.7069 1048.38 22.3121 1048.38 23.0238V40.7608H1061.7C1062.41 40.7608 1063.02 41.0102 1063.52 41.509C1064.02 42.0106 1064.26 42.613 1064.26 43.3275V49.5257C1064.26 50.2402 1064.02 50.8454 1063.52 51.3442C1063.02 51.8458 1062.42 52.0923 1061.7 52.0923H1048.38V75.2793C1048.38 78.2019 1048.89 80.4799 1049.93 82.1191C1050.95 83.7583 1052.75 84.5737 1055.31 84.5737H1062.67C1063.38 84.5737 1063.98 84.8259 1064.48 85.3247C1064.97 85.8235 1065.22 86.4287 1065.22 87.1404V93.7673C1065.22 94.479 1064.97 95.087 1064.48 95.5858C1063.98 96.0846 1063.38 96.334 1062.67 96.334H1054.03V96.3284Z" fill="#F7F7F7" fill-opacity="0.968627"/>
<path d="M1070.96 31.573C1070.18 31.573 1069.56 31.3433 1069.1 30.8781C1068.63 30.4158 1068.4 29.7909 1068.4 29.0064V21.3147C1068.4 20.603 1068.63 19.9978 1069.1 19.4962C1069.56 18.9974 1070.18 18.748 1070.96 18.748H1080.66C1081.44 18.748 1082.08 18.9974 1082.58 19.4962C1083.07 19.995 1083.32 20.6002 1083.32 21.3147V29.0064C1083.32 29.7909 1083.07 30.413 1082.58 30.8781C1082.08 31.3405 1081.44 31.573 1080.66 31.573H1070.96ZM1071.39 96.3285C1070.68 96.3285 1070.07 96.0791 1069.57 95.5803C1069.08 95.0816 1068.83 94.4763 1068.83 93.7618V43.3249C1068.83 42.6131 1069.08 42.0079 1069.57 41.5063C1070.07 41.0076 1070.68 40.7582 1071.39 40.7582H1080.23C1081.01 40.7582 1081.63 41.0076 1082.1 41.5063C1082.56 42.0079 1082.79 42.6103 1082.79 43.3249V93.7618C1082.79 94.4735 1082.56 95.0816 1082.1 95.5803C1081.63 96.0791 1081.01 96.3285 1080.23 96.3285H1071.39Z" fill="#F7F7F7" fill-opacity="0.968627"/>
<path d="M1114.59 97.393C1108.9 97.393 1104.12 96.3954 1100.25 94.4004C1096.38 92.4081 1093.43 89.5921 1091.41 85.9606C1089.38 82.3263 1088.22 78.0896 1087.94 73.2449C1087.87 71.9615 1087.84 70.398 1087.84 68.543C1087.84 66.6909 1087.87 65.1217 1087.94 63.8384C1088.22 58.9264 1089.42 54.6701 1091.51 51.0694C1093.61 47.4744 1096.59 44.678 1100.46 42.6801C1104.33 40.6878 1109.04 39.6875 1114.59 39.6875C1120.13 39.6875 1124.84 40.685 1128.71 42.6801C1132.58 44.6752 1135.56 47.4716 1137.66 51.0694C1139.76 54.6673 1140.95 58.9236 1141.24 63.8384C1141.31 65.1217 1141.34 66.6881 1141.34 68.543C1141.34 70.3952 1141.3 71.9615 1141.24 73.2449C1140.95 78.0896 1139.8 82.3263 1137.77 85.9606C1135.74 89.5921 1132.8 92.4081 1128.92 94.4004C1125.05 96.3954 1120.27 97.393 1114.59 97.393ZM1114.59 86.818C1118.35 86.818 1121.26 85.6244 1123.33 83.2398C1125.39 80.8525 1126.52 77.3443 1126.74 72.7125C1126.81 71.6449 1126.84 70.2551 1126.84 68.5486C1126.84 66.8394 1126.81 65.4468 1126.74 64.382C1126.52 59.8231 1125.39 56.3317 1123.33 53.9107C1121.26 51.4897 1118.35 50.2765 1114.59 50.2765C1110.82 50.2765 1107.91 51.4897 1105.85 53.9107C1103.78 56.3317 1102.65 59.8259 1102.43 64.382C1102.36 65.4496 1102.33 66.8394 1102.33 68.5486C1102.33 70.2551 1102.36 71.6477 1102.43 72.7125C1102.65 77.3443 1103.78 80.8525 1105.85 83.2398C1107.91 85.6244 1110.82 86.818 1114.59 86.818Z" fill="#F7F7F7" fill-opacity="0.968627"/>
<path d="M1148.93 96.3284C1148.21 96.3284 1147.61 96.0791 1147.11 95.5803C1146.61 95.0815 1146.37 94.4763 1146.37 93.7618V43.3248C1146.37 42.6131 1146.61 42.0079 1147.11 41.5063C1147.61 41.0075 1148.21 40.7581 1148.93 40.7581H1157.67C1158.37 40.7581 1158.98 41.0075 1159.48 41.5063C1159.98 42.0079 1160.23 42.6103 1160.23 43.3248V47.7072C1162.07 45.4292 1164.44 43.5238 1167.31 41.9882C1170.19 40.4583 1173.76 39.6934 1178.02 39.6934C1182.35 39.6934 1186.12 40.6741 1189.32 42.6299C1192.52 44.5913 1194.98 47.3514 1196.73 50.9128C1198.47 54.4742 1199.34 58.7473 1199.34 63.735V93.759C1199.34 94.4707 1199.09 95.0787 1198.59 95.5775C1198.09 96.0763 1197.49 96.3256 1196.78 96.3256H1187.4C1186.69 96.3256 1186.08 96.0763 1185.59 95.5775C1185.09 95.0787 1184.84 94.4735 1184.84 93.759V64.3794C1184.84 60.2464 1183.82 57.0044 1181.8 54.6563C1179.78 52.3054 1176.85 51.1285 1173.01 51.1285C1169.31 51.1285 1166.36 52.3054 1164.16 54.6563C1161.96 57.0072 1160.86 60.2492 1160.86 64.3794V93.7646C1160.86 94.4763 1160.61 95.0843 1160.11 95.5831C1159.61 96.0819 1159.01 96.3312 1158.3 96.3312H1148.93V96.3284Z" fill="#F7F7F7" fill-opacity="0.968627"/>
<path d="M1220.42 96.9445C1217.46 96.9445 1214.87 96.3869 1212.63 95.2745C1210.39 94.1649 1208.64 92.5481 1207.39 90.4269C1206.14 88.3058 1205.45 85.7419 1205.33 82.7381C1205.28 82.1188 1205.26 81.3063 1205.26 80.2975C1205.26 79.2888 1205.28 78.4566 1205.33 77.7953C1205.45 74.7915 1206.14 72.2276 1207.39 70.1064C1208.64 67.9881 1210.39 66.3713 1212.63 65.2589C1214.87 64.1493 1217.46 63.5889 1220.42 63.5889C1223.05 63.5889 1225.29 63.9587 1227.14 64.7013C1228.99 65.441 1230.51 66.3685 1231.7 67.4809C1232.89 68.5905 1233.78 69.7534 1234.38 70.9695C1234.97 72.1856 1235.29 73.284 1235.33 74.2731C1235.37 74.727 1235.24 75.0857 1234.93 75.3547C1234.63 75.6237 1234.26 75.7554 1233.85 75.7554H1228.43C1228.02 75.7554 1227.7 75.6545 1227.48 75.4472C1227.25 75.2398 1227.04 74.9344 1226.83 74.5197C1226.21 72.8721 1225.4 71.7092 1224.4 71.0283C1223.39 70.3502 1222.11 70.0112 1220.54 70.0112C1218.49 70.0112 1216.86 70.6612 1215.65 71.9558C1214.43 73.2531 1213.79 75.3014 1213.71 78.1035C1213.63 79.667 1213.63 81.1073 1213.71 82.4243C1213.79 85.2684 1214.43 87.3251 1215.65 88.6028C1216.86 89.8777 1218.49 90.5166 1220.54 90.5166C1222.15 90.5166 1223.44 90.1775 1224.43 89.4995C1225.41 88.8186 1226.21 87.6557 1226.83 86.0081C1227.04 85.599 1227.25 85.288 1227.48 85.0806C1227.7 84.8761 1228.02 84.7724 1228.43 84.7724H1233.85C1234.26 84.7724 1234.63 84.9069 1234.93 85.1731C1235.24 85.4421 1235.37 85.8035 1235.33 86.2547C1235.29 86.9972 1235.1 87.8294 1234.75 88.7569C1234.4 89.6844 1233.84 90.6315 1233.08 91.5982C1232.32 92.5649 1231.37 93.4504 1230.22 94.2545C1229.07 95.0587 1227.68 95.706 1226.06 96.202C1224.44 96.6979 1222.56 96.9445 1220.42 96.9445Z" fill="#F7F7F7" fill-opacity="0.968627"/>
<path d="M1252.83 96.9446C1249.54 96.9446 1246.78 96.3674 1244.54 95.2158C1242.3 94.0641 1240.6 92.4361 1239.43 90.3346C1238.26 88.233 1237.59 85.7841 1237.42 82.982C1237.38 82.2423 1237.36 81.3372 1237.36 80.2668C1237.36 79.1964 1237.38 78.2914 1237.42 77.5516C1237.59 74.7075 1238.28 72.2473 1239.49 70.171C1240.7 68.0919 1242.43 66.4751 1244.66 65.3207C1246.9 64.169 1249.62 63.5918 1252.83 63.5918C1256.03 63.5918 1258.75 64.169 1260.99 65.3207C1263.23 66.4751 1264.95 68.0919 1266.16 70.171C1267.37 72.2501 1268.06 74.7103 1268.23 77.5516C1268.27 78.2914 1268.29 79.1992 1268.29 80.2668C1268.29 81.34 1268.27 82.2423 1268.23 82.982C1268.06 85.7841 1267.4 88.233 1266.22 90.3346C1265.05 92.4361 1263.35 94.0613 1261.11 95.2158C1258.87 96.3702 1256.11 96.9446 1252.83 96.9446ZM1252.83 90.8306C1255 90.8306 1256.69 90.1412 1257.88 88.7598C1259.07 87.3784 1259.72 85.3525 1259.85 82.6766C1259.89 82.0601 1259.91 81.2559 1259.91 80.2668C1259.91 79.2777 1259.89 78.4763 1259.85 77.857C1259.72 75.2231 1259.06 73.2056 1257.88 71.8018C1256.68 70.4036 1255 69.7003 1252.83 69.7003C1250.65 69.7003 1248.97 70.4008 1247.78 71.8018C1246.58 73.2028 1245.93 75.2231 1245.8 77.857C1245.76 78.4763 1245.74 79.2777 1245.74 80.2668C1245.74 81.2559 1245.76 82.0601 1245.8 82.6766C1245.93 85.3553 1246.58 87.3812 1247.78 88.7598C1248.97 90.1412 1250.65 90.8306 1252.83 90.8306Z" fill="#F7F7F7" fill-opacity="0.968627"/>
<path d="M1272.73 96.3249C1272.32 96.3249 1271.97 96.182 1271.68 95.8933C1271.39 95.6047 1271.25 95.2545 1271.25 94.8426V88.7285C1271.25 88.2746 1271.39 87.9047 1271.68 87.6161C1271.97 87.3303 1272.32 87.1846 1272.73 87.1846H1278.89C1279.3 87.1846 1279.65 87.3303 1279.94 87.6161C1280.22 87.9047 1280.37 88.2746 1280.37 88.7285V94.8426C1280.37 95.2545 1280.22 95.6047 1279.94 95.8933C1279.65 96.182 1279.3 96.3249 1278.89 96.3249H1272.73Z" fill="#F7F7F7" fill-opacity="0.968627"/>
<path d="M544.388 81V48.015H560.543C563.025 48.015 565.076 48.3712 566.696 49.0837C568.324 49.7962 569.52 50.7712 570.285 52.0087C571.058 53.2462 571.444 54.6675 571.444 56.2725C571.444 57.5475 571.148 58.7137 570.555 59.7712C569.97 60.8287 569.123 61.6987 568.013 62.3812C566.903 63.0637 565.59 63.4912 564.075 63.6637L564.165 62.9325C566.003 63.0825 567.574 63.5587 568.879 64.3612C570.184 65.1562 571.163 66.1612 571.815 67.3762C572.468 68.5837 572.794 69.8775 572.794 71.2575C572.794 73.1025 572.355 74.7562 571.478 76.2187C570.608 77.6812 569.258 78.8437 567.428 79.7062C565.605 80.5687 563.329 81 560.599 81H544.388ZM551.003 77.4562L550.44 76.05H560.61C561.72 76.05 562.68 75.8662 563.49 75.4987C564.308 75.1312 564.938 74.5875 565.38 73.8675C565.823 73.1475 566.044 72.2737 566.044 71.2462C566.044 70.2187 565.808 69.3525 565.335 68.6475C564.863 67.935 564.188 67.3987 563.31 67.0387C562.44 66.6787 561.405 66.4987 560.205 66.4987H550.294V61.6387H559.508C560.633 61.6387 561.596 61.47 562.399 61.1325C563.201 60.7875 563.816 60.2812 564.244 59.6137C564.679 58.9387 564.896 58.125 564.896 57.1725C564.896 56.34 564.701 55.6087 564.311 54.9787C563.921 54.3412 563.329 53.8462 562.534 53.4937C561.739 53.1337 560.753 52.9537 559.575 52.9537H550.238L551.003 50.5012V77.4562ZM587.377 81V64.8225L589.008 70.605L574.9 48.015H582.157L587.905 57.6675C588.595 58.965 589.203 60.1912 589.728 61.3462C590.26 62.4937 590.827 63.7987 591.427 65.2612L590.122 65.2837C590.812 63.6712 591.415 62.2875 591.933 61.1325C592.458 59.9775 593.028 58.8225 593.643 57.6675L599.358 48.015H606.389L592.495 70.5487L594.048 64.845V81H587.377Z" fill="white"/>
</svg>
