<svg width="564" height="125" viewBox="0 0 564 125" fill="currentColor" xmlns="http://www.w3.org/2000/svg">
<path d="M46.1 26.7002V27.8002L46 29.4002L45.8 30.5002L45.3 32.0002L45 33.1002L44.6 34.1002L44.2 35.2002L43.8 36.3002L43.4 37.3002L42.7 38.8002L42.2 39.7002L41.3 40.8002L40.6 41.5002L39.5 42.6002L38 44.1002L37.1 44.8002L35.8 45.8002L34.9 46.3002L33.6 47.0002L32.7 47.4002L31.3 47.9002L30.3 48.2002L29.2 48.5002L28.1 48.7002L24 49.3002L23 49.4002L21.5 49.5002H20.4L18.3 49.4002L16.6 49.3002H15.5L13.4 49.4002L11.7 49.5002L10.6 49.6002L9.6 49.5002H4.9L3.9 49.4002L1 49.1002L0.5 48.8002L0.199999 48.5002L0.0999985 47.8002L0 46.8002L0.0999985 46.3002L0.199999 44.3002V43.4002L0.299999 41.8002V40.8002L0.4 39.7002V38.6002L0.299999 35.1002V34.0002L0.199999 30.5002L0.299999 29.5002L0.4 28.0002L0.5 27.0002L0.599998 25.9002V24.8002L0.299999 23.1002V22.0002V21.4002L0.199999 20.3002L0.5 16.8002V15.7002L0.4 12.2002V11.1002L0.199999 7.60019V5.0002L0.299999 3.8002L0.5 2.8002L0.599998 2.10019L0.9 1.7002L1.6 1.5002L2.7 1.4002L3.7 1.3002L4.8 1.2002L10.7 1.3002H11.8L15 1.5002L15.5 1.60019H16.7L19.5 1.5002L20.5 1.4002H21.6L23.3 1.5002L25.4 1.60019L26.5 1.7002L28.2 2.0002L29.3 2.2002L30.3 2.5002L32.7 3.4002L33.7 3.9002L34.7 4.4002L35.6 4.9002L37.8 6.4002L38.7 7.10019L39.5 7.8002L41 9.2002L41.7 9.90019L42.3 10.6002L42.8 11.5002L43.5 13.0002L43.9 14.0002L44.2 15.1002L44.6 16.2002L44.9 17.3002L45.2 18.4002L45.5 19.9002L45.7 21.0002L45.9 22.1002L46 23.2002L46.1 24.8002L46.2 25.9002L46.1 26.7002ZM30.9 32.4002L31.4 31.4002L31.8 30.3002L32.1 29.3002L32.3 27.8002L32.4 26.9002L32.5 25.4002V23.3002L32.4 22.2002L32.2 20.7002L31.9 19.7002L31.8 19.3002L31.3 18.3002L30.3 16.8002L30 16.5002L29.3 15.7002L28.6 15.0002L27.8 14.4002L26.3 13.5002L25.3 13.1002L24.4 12.9002L23.3 12.7002L21.6 12.6002L20.5 12.5002H18.8L17.3 12.4002L16.3 12.5002L14.9 12.8002L14.2 13.0002L13.9 13.3002L13.7 14.1002L13.6 14.7002L13.5 15.7002L13.6 17.7002L13.7 18.8002L13.8 20.3002L13.9 21.4002L14 22.5002V23.6002L13.9 25.1002V28.3002L13.8 29.4002L13.7 30.5002V31.8002V32.8002L13.6 34.3002L13.7 35.3002L13.9 36.9002L14.2 37.6002L14.6 37.9002L15.4 38.0002L21.6 37.6002L23.1 37.5002L24.2 37.3002L25.3 37.0002L26.4 36.6002L27.4 36.1002L28.3 35.5002L29.5 34.4002L30.2 33.6002L30.9 32.4002Z" fill="currentColor"/>
<path d="M66.6002 38.9V40L66.3002 43.6V44.7V48.3V49L66.1002 49.3L65.6002 49.5L64.7002 49.6L61.3002 49.5H57.2002L53.9002 49.2H53.3002L53.1002 49V48.3L53.0002 46.6V45.5L52.9002 44.5V43.5L52.7002 39.9L52.8002 38.8L53.0002 35.2L53.1002 34.1L52.9002 30.4V29.3L52.8002 25.7V20L52.7002 16.3V15.2L52.8002 11.6V5.9L52.7002 2.2L52.9002 1.5L53.3002 1.2L54.0002 1.1H54.5002L55.5002 1L57.1002 1.1H58.2002L61.3002 1H65.3002L66.0002 1.1L66.1002 1.5L66.2002 2.2L66.3002 3.9L66.4002 5V11.8L66.5002 15.4V16.5L66.4002 20.2V21.3L66.5002 24.9V26L66.4002 29.6V35.4L66.6002 38.9Z" fill="currentColor"/>
<path d="M129.4 43.5L129.5 44.6L129.8 46.7L129.9 47.7L129.8 48.2L129.7 48.9L129.4 49.4L129 49.7L128.3 49.8L127.3 49.9H126.2L123.5 49.7L122.4 49.6H120.7L119.5 49.5L117 49.2L116.5 49.1L116.3 48.8L116.2 48.1L116.1 47.2L116 46.2L116.1 43.9V37.6L115.9 33.4V32.3L116.2 28.2V23L116.1 22.2L115.7 21.9H115.3L114.8 22.5L114.1 23.4L111.3 26.6L107.2 31.5L104.5 34.8L103.9 35.3L103.4 35.5H102.9L102.2 35.4L101.4 35.2L100.7 34.7L97.3998 30.7L94.8998 27.4L94.1998 26.6L90.6998 22.7L89.7998 21.8L89.3998 21.9L89.2998 22.6L89.0998 26.8V27.9L89.3998 32.1V33.2L89.4998 37.4V38.5L89.3998 42.6V43.6L89.4998 45.6L89.3998 46.7L89.2998 47.8L89.1998 48.7L88.8998 49.1L88.3998 49.2L86.6998 49.4L85.5998 49.5L82.9998 49.3L81.8998 49.4L78.8998 49.8H77.3998L76.5998 49.7L76.1998 49.3L76.0998 48.8L75.9998 48.1V46.6L76.0998 44.5V34.2L75.9998 30.7V29.6L76.0998 26.1L75.9998 25L75.7998 21.4V20.3L75.9998 16.8L76.0998 15.7L75.7998 12.2L75.8998 11.1L76.1998 7.6V6.5L75.8998 4V2.9L75.9998 2L76.2998 1.5L76.6998 1.2L77.1998 1.1L78.0998 1L79.1998 1.1L80.6998 1.4H81.7998L83.8998 1.2L84.9998 1.1L85.9998 1L88.4998 1.1H89.3998L90.0998 1.4L90.7998 2.1L93.0998 4.7L93.7998 5.6L95.6998 8.3L96.3998 9.2L98.5998 11.8L99.2998 12.7L101.4 15.3L102.1 16L102.7 16.3H103.4L104 16L104.6 15.3L106.6 12.6L107.3 11.7L109.4 9.1L110.1 8.2L112.4 5.6L113.1 4.7L114.8 2.6L115.3 1.9L115.8 1.4L116.5 1.1L117.4 1.2L120.9 1.4L124 1.5H125.1L127.1 1.4L128.2 1.5L129 1.6L129.5 1.7L129.9 2L130 2.5L129.9 3.3L129.6 6.3L129.5 7.4L129.6 10.9V12L129.5 15.5V16.8L129.6 20.3V21.4L129.9 25V26.1L129.6 29.6V30.7L129.8 34.2V35.3L129.5 38.8V39.9L129.4 43.5Z" fill="currentColor"/>
<path d="M178 43.2996L177.9 44.3996L177.6 47.9996L177.5 48.6996L177.2 49.1996L176.9 49.4996L168.2 49.7996H167.1L163.6 49.4996L162.5 49.5996L159 49.8996L157.9 49.9996H153.3L149.8 49.6996H148.7L143 49.9996L140.7 49.8996L139.9 49.7996L139.4 49.4996L139.2 48.9996L139.1 48.2996L139 46.7996L138.9 45.6996L139 44.6996V43.6996L139.3 40.1996V38.7996L139.4 35.2996L139.3 34.1996L139.1 30.6996L139 29.5996L139.1 25.9996V20.2996L139.4 16.7996L139.3 15.6996L139.1 12.1996L139 11.0996V9.49961L139.1 7.49961V6.49961L139.3 2.99961L139.4 2.09961L139.6 1.59961L139.9 1.29961L140.4 1.19961L141.3 1.09961L145.6 1.39961L149.7 1.29961H150.8L154.8 1.59961H155.9L159.9 1.29961H161L170.1 1.39961L171.2 1.29961L173.5 1.09961H175.2L176.1 1.29961L176.5 1.59961L176.6 2.09961L176.7 2.99961V4.79961L176.6 6.49961V7.59961L176.7 9.29961L176.8 10.2996L176.7 11.2996L176.6 12.0996L176.3 12.5996L176 12.8996L175.2 12.9996H174.7L173.6 13.0996L167.3 12.9996H166.2L162.8 13.0996H161.7L158.2 12.9996L155.2 12.7996H154.2L153.7 12.8996L153 12.9996L152.7 13.2996L152.6 13.6996L152.5 14.3996L152.4 15.9996V17.0996L152.5 18.1996L152.6 18.8996L152.7 19.3996L153 19.6996L153.7 19.8996L155.8 19.9996L157.9 19.8996H164.2L171.7 19.4996L173.8 19.5996L174.5 19.6996L174.9 19.9996L175.1 20.3996L175.2 21.0996L175.3 22.1996L175.4 23.2996V25.4996L175.5 26.9996L175.4 28.9996L175.3 29.7996L175 30.2996L174.5 30.5996L173.8 30.6996H172.5L169.5 30.3996L168.4 30.2996L163.1 30.5996L158.8 30.4996H157.7L155 30.2996L153.9 30.3996L153.1 30.4996L152.8 30.6996L152.6 31.1996L152.5 32.1996L152.3 33.8996L152.2 34.9996V36.4996L152.3 37.1996L152.5 37.6996L152.8 37.9996L153.5 38.0996L157.2 38.1996H158.3L161.9 37.8996L166.6 38.1996H167.7L172.4 37.8996H173.4L174.4 37.9996L176.8 38.2996L177.2 38.4996L177.5 38.8996L177.6 39.5996L178 43.2996Z" fill="currentColor"/>
<path d="M226.2 34.6002L226.1 35.7002L226 36.8002L225.8 37.9002L225.5 39.4002L225.2 40.3002L224.6 41.6002L224.1 42.5002L223.3 43.7002L222.6 44.5002L221.8 45.3002L221 46.0002L219.7 46.9002L218.8 47.5002L217.8 48.0002L216.9 48.5002L215.4 49.0002L213.4 49.7002L212.3 49.9002L210.6 50.2002L209.6 50.3002L208.1 50.4002L207.2 50.5002L205.7 50.6002L202.5 50.8002H201L200.1 50.7002L198.6 50.6002L197.6 50.5002L196.5 50.3002L195.5 50.0002L194 49.5002L193.1 49.0002L192.1 48.5002L191.2 48.0002L190.3 47.5002L188.2 46.0002L187.4 45.3002L186.2 44.4002L185.4 43.7002L184.7 43.0002L184.2 42.4002L184.1 41.9002L184.4 41.3002L184.7 41.0002L185.4 40.3002L187.3 38.6002L187.9 37.9002L189 36.2002L189.6 35.5002L190.3 34.8002L191 34.4002L191.7 34.5002L192.4 35.0002L194.5 36.5002L195.5 37.0002L196.4 37.5002L197.9 38.2002L198.9 38.5002L200 38.8002L201.1 39.0002L202.6 39.1002L203.7 39.2002L207.9 38.9002L209 38.8002L209.5 38.7002L210.5 38.3002L211.4 37.8002L212.1 37.1002L212.4 36.6002L212.8 35.6002L212.7 34.5002L212.6 34.0002L212.1 33.1002L211.8 32.7002L210.9 32.0002L210.4 31.8002L209.4 31.4002L208.3 31.1002L207.2 30.9002L200.9 30.3002L198.9 29.9002L197.8 29.6002L196.3 29.1002L195.3 28.8002L194.3 28.3002L192 27.2002L191.1 26.6002L190.1 26.0002L189.2 25.4002L188.1 24.5002L187.5 23.6002L186.9 22.6002L186.5 21.6002L186 20.2002L185.8 19.2002L185.6 17.7002L185.5 15.6002L185.6 14.5002L185.7 12.9002L185.9 11.9002L186.2 11.0002L186.5 10.0002L187.2 8.5002L187.7 7.60019L188.2 6.8002L188.9 6.10019L190 5.10019L190.9 4.4002L191.8 3.8002L192.7 3.3002L194 2.60019L196 1.8002L197 1.5002L198.5 1.2002L199.6 1.0002L201.6 0.700195L203.1 0.400196L204.2 0.300196L205.2 0.200195H206.3L208.3 0.400196L209.3 0.500196L209.8 0.600195L210.9 0.700195L213.2 1.10019L214.3 1.4002L215.4 1.7002L216.5 2.0002L217.6 2.4002L218.6 2.9002L219.6 3.3002L220.9 4.0002L221.8 4.5002L222.7 5.10019L223.3 5.7002V6.4002L222.9 7.10019L222.2 8.40019L221.7 9.2002L219.2 12.5002L218.5 13.4002L217.7 14.1002L217.2 14.3002L216.7 14.2002L216 13.9002L215 13.3002L214 12.9002L213.5 12.7002L212.5 12.4002L212 12.3002L210.9 12.0002L209.4 11.7002L208.3 11.6002L206.6 11.5002H204.9L203.8 11.6002L202.7 11.8002L201.6 12.1002L201.2 12.3002L200.4 12.9002L200.1 13.3002L199.6 14.2002L199.5 15.3002L199.7 16.2002L200.2 17.1002L200.9 17.8002L201.7 18.2002L202.2 18.4002L203.2 18.6002L204.9 18.8002L207.2 18.9002L208.3 19.1002L210.6 19.6002L212.7 20.3002L214.2 20.6002L215.2 20.9002L217.1 21.6002L218.4 22.2002L219.3 22.7002L220.2 23.2002L221.1 23.7002L223 25.3002L223.7 26.1002L224.4 26.9002L225.2 28.1002L225.7 29.0002L226.2 30.0002L226.5 31.0002L226.8 32.5002L226.9 33.5002L226.2 34.6002Z" fill="currentColor"/>
<path d="M301.1 34.6L301 35.7L300.9 36.8L300.7 37.9L300.4 39.4L300.1 40.3L299.5 41.6L299 42.5L298.2 43.7L297.5 44.5L296.7 45.3L295.9 46L294.6 46.9L293.7 47.5L292.7 48L291.8 48.5L290.3 49L288.3 49.7L287.2 49.9L285.5 50.2L284.5 50.3L283 50.4L282.1 50.5L280.6 50.6L277.3 50.8H275.8L274.9 50.7L273.4 50.6L272.4 50.5L271.3 50.3L270.3 50L268.8 49.5L267.9 49L266.9 48.5L266 48L265.1 47.5L263 46L262.2 45.3L261 44.4L260.2 43.7L259.5 43L259 42.4L258.9 41.9L259.2 41.3L259.5 41L260.2 40.3L262.1 38.6L262.7 37.9L263.8 36.2L264.4 35.5L265.1 34.8L265.8 34.4L266.5 34.5L267.2 35L269.3 36.5L270.3 37L271.2 37.5L272.7 38.2L273.7 38.5L274.8 38.8L275.9 39L277.4 39.1L278.5 39.2L282.7 38.9L283.8 38.8L284.3 38.7L285.3 38.3L286.2 37.8L286.9 37.1L287.2 36.6L287.6 35.6L287.5 34.5L287.3 33.8L286.8 32.9L286.5 32.5L285.6 31.8L285.1 31.6L284.1 31.2L283 30.9L281.9 30.7L275.6 30.1L273.6 29.7L272.5 29.4L271 28.9L270 28.6L269 28.1L266.7 27L265.8 26.4L264.8 25.8L263.9 25.2L262.8 24.3L262.2 23.4L261.6 22.4L261.2 21.4L260.7 20L260.5 19L260.3 17.5L260.2 15.4L260.3 14.3L260.4 12.7L260.6 11.7L260.9 10.8L261.2 9.8L261.9 8.3L262.4 7.4L262.9 6.6L263.6 5.9L264.7 4.9L265.6 4.2L266.5 3.6L267.4 3.1L268.7 2.4L270.7 1.6L271.7 1.3L273.2 1L274.3 0.799999L276.3 0.5L277.8 0.199999L278.9 0.0999985L279.9 0H281L283 0.199999L284 0.299999L284.5 0.4L285.6 0.5L287.9 0.9L289 1.2L290.1 1.5L291.2 1.8L292.3 2.2L293.3 2.7L294.3 3.1L295.6 3.8L296.5 4.3L297.4 4.9L298 5.5V6.2L297.6 6.9L296.9 8.2L296.4 9L293.9 12.3L293.2 13.2L292.4 13.9L291.9 14.1L291.4 14L290.7 13.7L289.7 13.1L288.7 12.7L288.2 12.5L287.2 12.2L286.7 12.1L285.6 11.8L284.1 11.5L283 11.4L281.3 11.3H279.6L278.5 11.4L277.4 11.6L276.3 11.9L275.9 12.1L275.1 12.7L274.8 13.1L274.3 14L274.2 15.1L274.4 16L274.9 16.9L275.6 17.6L276.4 18L276.9 18.2L277.9 18.4L279.6 18.6L281.9 18.7L283 18.9L285.3 19.4L287.4 20.1L288.9 20.4L289.9 20.7L291.8 21.4L293.1 22L294 22.5L294.9 23L295.8 23.5L297.7 25.1L298.4 25.9L299.1 26.7L299.9 27.9L300.4 28.8L300.9 29.8L301.2 30.8L301.5 32.3L301.6 33.3L301.1 34.6Z" fill="currentColor"/>
<path d="M358.6 45.7998L358.1 46.3998L354.8 49.6998L354 50.3998L350.6 53.6998L349.9 54.1998L349.4 54.2998L348.9 53.7998L347.1 51.5998L346.4 50.7998L344.5 48.8998L343.8 48.4998L343 48.5998L342 48.8998L340.9 49.1998L339.9 49.3998L337.8 49.8998L336.7 50.0998L335.7 50.2998L334.6 50.3998L334 50.4998H331.5L330.5 50.5998L329 50.6998L328 50.7998H327L325.9 50.6998L323.9 50.2998L322.4 49.9998L321.4 49.6998L319.3 48.8998L318.2 48.3998L317.2 47.8998L315.2 46.6998L312.6 44.7998L311.7 44.0998L310.6 42.9998L309.9 42.2998L309 41.0998L308.5 40.1998L308 39.1998L307.5 38.2998L306.8 36.9998L306.3 36.0998L305.9 35.1998L305.6 34.1998L305.1 32.6998L304.7 30.6998L304.6 29.6998L304.7 28.1998L304.8 27.0998L304.9 26.0998V25.0998L304.8 23.9998L304.7 22.9998V21.4998L304.8 20.3998L305 19.2998L305.3 18.1998L305.6 17.0998L306 15.9998L306.5 14.8998L307 13.8998L308.1 11.9998L309.5 9.69981L310.7 8.19981L312.6 6.5998L313.5 5.89981L315.8 4.39981L316.7 3.89981L319.6 2.5998L320.6 2.1998L322.7 1.49981L324.2 1.1998L325.3 0.999805L328.4 0.499805L329.5 0.399805L330.6 0.299805H331.7L333.2 0.399805H334.2L335.3 0.499805L336.4 0.699804L337.9 0.999805L338.9 1.2998L339.8 1.5998L342.2 2.49981L343.1 2.89981L344 3.39981L344.9 3.7998L345.9 4.0998L348.2 5.1998L349.1 5.89981L349.9 6.6998L350.7 7.5998L352.2 9.2998L353 10.1998L353.7 11.0998L354.3 11.9998L354.9 12.8998L355.4 13.8998L355.8 14.7998L356.3 16.1998L356.7 17.1998L357 18.2998L357.3 19.3998L357.6 20.4998L357.8 21.5998L357.9 22.6998V23.7998L357.8 24.8998V27.9998L357.7 29.6998L357.6 30.6998L357.3 32.1998L357 33.1998L356.6 34.2998L356.2 35.3998L355.9 36.4998L355.5 37.4998L354.8 38.8998L354.5 39.5998V40.0998L355 40.7998L358.7 44.5998L359.2 45.2998L358.6 45.7998ZM330.2 39.2998H331.3L333 38.9998L334 38.7998L335.5 38.2998L338 37.1998L338.9 36.5998L340.1 35.6998L340.8 34.8998L341.7 33.5998L342.2 32.6998L342.8 31.1998L343.1 30.1998L343.4 29.0998L343.6 27.9998L343.8 25.9998V24.8998L343.7 23.3998L343.5 22.2998L343 20.6998L342.7 19.6998L341.8 17.9998L341.3 17.0998L340.6 16.1998L339.9 15.4998L338.8 14.3998L337.9 13.7998L336.6 12.9998L335.7 12.5998L334.2 12.0998L333.2 11.8998L331.6 11.6998H330.5L329.4 11.7998L328.3 11.9998L326.4 12.5998L325.5 12.8998L324.5 13.3998L323.6 13.9998L321.9 15.2998L321.2 16.0998L320.3 17.3998L319.8 18.2998L319.1 19.7998L318.8 20.7998L318.5 21.8998L318.4 22.8998L318.2 25.8998L318.3 27.3998L318.4 28.3998L318.7 30.0998L319 31.0998L319.5 32.5998L320 33.4998L320.9 34.8998L321.3 35.7998L322.6 36.6998L323.5 37.1998L326 38.1998L327.5 38.6998L328.5 38.9998L330.2 39.2998Z" fill="currentColor"/>
<path d="M408.8 26.0004L408.9 28.1004L408.8 29.1004L408.7 30.6004L408.6 31.6004L408.3 33.2004L408.1 34.3004L407.8 35.8004L407.5 36.8004L407 38.2004L406.7 39.1004L406.1 40.5004L405.6 41.4004L404.7 42.7004L404 43.6004L403.2 44.5004L402.3 45.2004L401 46.3004L400.1 46.9004L398.8 47.7004L397.9 48.2004L396.5 48.9004L395.5 49.2004L394 49.7004L393 50.0004L391.5 50.3004L390.5 50.5004L388.4 50.6004H385.3L383.8 50.5004L382.8 50.4004L379.1 50.0004L378 49.8004L377.4 49.7004L376.3 49.4004L375.8 49.2004L374.7 48.7004L373.2 48.0004L372.2 47.4004L371.2 46.7004L369.5 45.2004L368.8 44.5004L367.9 43.4004L367.3 42.6004L366.2 40.9004L365.6 40.0004L365.1 39.0004L364.6 37.9004L364.2 36.9004L363.9 36.0004L363.6 35.0004L363.3 33.5004L363.1 32.4004L363 31.3004L362.9 29.0004L362.8 27.9004L363 23.8004V22.7004L362.9 18.6004V17.5004L363.1 13.4004V7.20039L363 5.10039V4.00039L363.1 2.90039L363.3 1.80039L363.8 1.20039L364.7 1.00039L366.9 0.900391L369.4 1.10039H370.5L372.7 1.00039L373.7 1.10039L375.2 1.20039L376.1 1.40039L376.6 1.90039L376.8 2.80039L376.9 3.70039V4.70039L376.8 7.30039V8.40039L377 12.5004V13.6004L376.9 17.7004V18.8004L376.7 22.9004V24.0004L376.6 28.1004L376.7 29.2004L376.8 30.9004L377.3 31.8004L377.7 33.3004L378.1 34.3004L378.8 35.8004L379.5 36.6004L380.6 37.7004L381.5 38.2004L383 38.7004L384 39.0004L385.7 39.1004H386.8L388.5 38.8004L389.5 38.5004L390.8 37.9004L391.7 37.4004L392.8 36.5004L393.5 35.7004L394.2 34.3004L394.7 33.3004L395 32.2004L395.2 31.1004L395.5 29.1004L395.6 28.0004L395.3 23.9004V22.8004L395.5 18.7004V17.8004L395.6 13.7004V12.6004L395.5 8.50039L395.4 7.40039L395.2 4.60039V2.90039L395.5 2.00039L396.1 1.50039L397 1.30039H398.4L401.8 1.60039H402.9L405.6 1.40039H406.7L407.7 1.50039L408.6 1.70039L409.1 2.20039L409.2 3.00039L409.3 5.00039V6.00039L409.2 7.50039V8.60039L409.4 12.7004V13.8004L409.3 17.9004V19.0004L409 23.1004L408.8 26.0004Z" fill="currentColor"/>
<path d="M466.7 47.7L466.9 48.6L466.4 49.3L465.7 49.6L464.8 49.7H463.9L462.4 49.6L461.4 49.5H458.4L454.3 49.8L453.4 49.5L453 49L452.7 48.3L450.6 42.7L450.1 42L449.5 41.9L448.7 41.8L444.7 41.5H443.6L438.6 41.4L434.6 41.3H433.6L432.6 41.4H429.5L428.6 41.5L428.1 41.8L427.7 42.6L426.2 47.1L425.8 48.2L425.1 49.1L424.1 49.5L423 49.4L419.1 49.2H418L413.9 49.5L413 49.6L412.2 49.2L411.7 48.5L411.8 47.6L411.9 47.1L412.3 46L413.2 43.9L413.6 42.9L415.3 39.2L415.7 38.3L417.4 34.6L417.8 33.6L419.3 30L419.7 29L421.5 25.3L421.9 24.4L424.3 18.9L426.2 14.9L426.7 13.8L428.2 10.8L428.7 9.7L430 6.6L430.4 5.6L431.6 2.9L431.9 2.2L432.6 1.8L433.6 1.6L436.7 1.5H441.9L445 1.6L446.1 1.8L446.8 2.3L447.1 3.2L448 5.8L448.4 6.8L450.1 9.9L450.5 10.8L452 14.1L452.4 15L453.6 18.4L454 19.3L455.5 22.5L455.9 23.4L457.4 26.7L457.8 27.6L459.1 30.9L459.5 31.8L461.6 35.9L463.2 39L463.7 39.9L465.5 44.1L466.7 47.7ZM444.4 28.8L444.1 27.9L442.6 23.4L442.3 22.4L441 18.5L440.7 17.6L440 17.1L439.1 16.9L438.4 17.1L437.7 17.8L435.9 22.3L435.5 23.3L433.8 27.8L433.6 28.8L433.8 29.6L434.5 29.9L435.4 30H439.6L442.7 30.2L443.6 29.9L444.1 29.4L444.4 28.8Z" fill="currentColor"/>
<path d="M518.6 49.3004L517.7 49.6004H513L509.3 49.5004H508.3L505.3 49.6004H504.4L503.8 49.3004L503.3 48.8004L501.2 45.8004L500.6 45.0004L498.5 42.1004L497.9 41.3004L496 38.2004L495.4 37.4004L493.3 34.5004L492.8 34.0004L492.3 33.8004L491.5 33.7004L489.4 33.6004L488.5 33.7004L488 34.1004L487.8 35.0004L487.7 38.7004L487.8 39.8004L488.1 43.5004L488.2 44.6004L488.3 46.2004V47.3004L488.2 48.4004L488.1 49.2004L487.8 49.5004L487.1 49.7004H486L482.8 49.5004L479.7 49.7004H478.6L475.5 49.5004L474.7 49.4004L474.3 49.1004L474.2 48.4004L474.1 47.5004L474 46.5004L474.1 44.8004L474.2 43.7004L474.5 40.1004V39.0004L474.3 35.4004L474.2 34.3004L474.1 30.8004V29.7004L474.3 26.1004V25.0004L474.1 21.4004V20.3004L474.3 16.7004V15.6004L474.4 12.1004V11.0004L474.3 7.40039V6.30039L474.2 4.10039L474.3 3.10039L474.4 2.70039L474.6 1.80039L475 1.30039L475.8 1.10039L476.3 1.00039L477.3 0.900391L480.3 1.00039L488.2 1.30039L492.7 1.00039H493.8L498.2 1.30039H500.7L501.8 1.40039L502.8 1.60039L504.2 2.00039L505.2 2.30039L506.2 2.70039L507.3 3.10039L508.3 3.60039L509.2 4.10039L510.5 5.00039L511.2 5.60039L511.9 6.30039L512.6 7.10039L513.5 8.40039L514.1 9.30039L514.9 10.6004L515.4 11.5004L515.9 12.5004L516.2 13.6004L516.4 14.7004L516.5 15.8004L516.6 17.3004V18.4004L516.5 19.5004L516.4 20.6004L516.2 21.7004L515.9 22.8004L515.5 23.8004L515 24.8004L514.4 25.8004L513.8 26.7004L513.2 27.5004L512.6 28.2004L511.5 29.3004L510.8 29.9004L509.5 30.6004L508.7 31.1004L507.8 31.6004L506.9 31.8004L506.4 32.0004L506.7 32.5004L509.1 35.9004L509.7 36.7004L512.1 40.0004L512.8 40.8004L515.2 44.1004L515.9 44.9004L518 47.3004L518.6 48.0004L518.9 48.7004L518.6 49.3004ZM498.4 23.6004L499.9 23.3004L500.8 23.0004L501.6 22.5004L502.3 21.7004L502.8 20.7004L503.1 19.6004L503.2 18.5004L503.1 17.4004L503 16.3004L502.7 15.3004L502.2 14.3004L501.6 13.5004L500.9 12.9004L500 12.5004L498.5 12.2004L497.4 12.1004L494.1 12.0004H493L489.6 12.2004L488.8 12.3004L488.3 12.5004L487.9 12.9004L487.8 13.6004L487.9 15.1004L488 16.2004L488.1 17.3004L488.2 18.4004L488.1 22.1004L488.2 22.8004L488.3 23.2004L488.8 23.4004L489.6 23.5004L493.1 23.8004H494.2L498.4 23.6004Z" fill="currentColor"/>
<path d="M563.5 43.2996L563.4 44.3996L563.1 47.9996L563 48.6996L562.7 49.1996L562.4 49.4996L553.7 49.7996H552.6L549.1 49.4996L548 49.5996L544.5 49.8996L543.4 49.9996H538.8L535.3 49.6996H534.2L528.5 49.9996L526.2 49.8996L525.4 49.7996L524.9 49.4996L524.7 48.9996L524.6 48.2996L524.5 46.7996L524.4 45.6996L524.5 44.6996V43.6996L524.8 40.1996V38.7996L524.9 35.2996L524.8 34.1996L524.6 30.6996L524.5 29.5996L524.6 25.9996V20.2996L524.9 16.7996L524.8 15.6996L524.6 12.1996L524.5 11.0996V9.49961L524.6 7.49961V6.49961L524.8 2.99961L524.9 2.09961L525.1 1.59961L525.4 1.29961L525.9 1.19961L526.8 1.09961L531.1 1.39961L535.2 1.29961H536.3L540.3 1.59961H541.4L545.4 1.29961H546.5L555.6 1.39961L556.7 1.29961L559 1.09961H560.7L561.6 1.29961L562 1.59961L562.1 2.09961L562.2 2.99961V4.79961L562.1 6.49961V7.59961L562.2 9.29961L562.3 10.2996L562.2 11.2996L562.1 12.0996L561.8 12.5996L561.5 12.8996L560.7 12.9996H560.3L559.2 13.0996L552.9 12.9996H551.8L548.4 13.0996H547.3L543.8 12.9996L540.8 12.7996H539.8L539.3 12.8996L538.6 12.9996L538.3 13.2996L538.2 13.6996L538.1 14.3996L538 15.9996V17.0996L538.1 18.1996L538.2 18.8996L538.3 19.3996L538.6 19.6996L539.3 19.8996L541.4 19.9996L543.5 19.8996H549.8L557.3 19.4996L559.4 19.5996L560.1 19.6996L560.5 19.9996L560.7 20.3996L560.8 21.0996L560.9 22.1996L561 23.2996V25.4996L561.1 26.9996L561 28.9996L560.9 29.7996L560.6 30.2996L560.3 30.7996L559.6 30.8996H558.3L555.3 30.5996L554.2 30.4996L548.9 30.7996L544.6 30.6996H543.5L540.8 30.4996L539.7 30.5996L538.9 30.6996L538.6 30.8996L538.4 31.3996L538.3 32.3996L538.1 34.0996L538 35.1996V36.6996L538.1 37.3996L538.3 37.8996L538.6 38.1996L539.3 38.2996L543 38.3996H544.1L547.7 38.0996L552.4 38.3996H553.5L558.2 38.0996H559.2L560.2 38.1996L562.6 38.4996L563 38.6996L563.3 39.0996L563.4 39.7996L563.5 43.2996Z" fill="currentColor"/>
<path d="M52 76.2998L51.8 77.1998L51.6 77.7998L51.2 78.8998L50.3 80.6998L49.8 81.6998L48.6 85.3998L48.1 86.3998L46.4 89.8998L45.9 90.8998L44.7 94.5998L44.3 95.6998L42.9 99.2998L42.5 100.4L41 104L40.5 105L38.7 108.5L38.2 109.5L36.7 113.1L36.3 114.2L34.9 117.6L34.5 118.7L33 122.3L32.7 123L32.3 123.3L31.5 123.4L26.6 123.3L25.5 123.4L21.8 123.7L20.7 123.8L19.8 123.7L19.3 123.2L18.9 122.4L17.4 118.9L17 117.9L15.3 114.2L14.9 113.2L13.4 109.7L13 108.6L11.8 104.9L11.4 103.8L9.80005 100.3L9.40002 99.2998L7.70001 95.5998L7.30005 94.5998L6 90.9998L5.5 89.8998L3.90002 86.3998L3.5 85.2998L2.30005 81.5998L1.90002 80.5998L0.700012 78.6998L0.300049 77.6998L0.100037 77.0998L0 76.1998L0.200012 75.5998L0.700012 75.1998L1.40002 74.9998L1.80005 74.8998H2.80005L5.80005 75.0998L9 74.9998L13.3 75.2998L14.2 75.3998L14.7 75.4998L15.1 75.9998L15.4 76.6998L15.7 77.5998L16.4 79.7998L16.7 80.8998L18.3 84.3998L18.7 85.4998L20 88.9998L20.4 90.0998L21.7 94.2998L22.1 95.3998L23.6 99.4998L25.3 104.8L25.6 105.5L26.1 105.8L26.7 105.5L27.1 104.8L28.7 100.7L28.9 99.5998L30 95.2998L30.3 94.1998L32.2 90.1998L32.5 89.0998L33.6 85.3998L33.9 84.3998L35.6 80.8998L35.9 79.8998L36.6 77.3998L37 76.2998L37.5 75.3998L38 75.0998L38.8 74.9998H39.3L40.4 74.8998L42.1 74.9998H46.4L49.5 74.7998L50.7 74.8998L51.5 75.0998L51.9 75.4998L52 76.2998Z" fill="currentColor"/>
<path d="M96.6 117.099L96.5 118.199L96.2 121.799L96.1 122.499L95.8 122.999L95.5 123.299L86.8 123.599H85.7L82.2 123.299L81.1 123.399L77.6 123.699L76.5 123.799H71.9L68.4 123.499H67.3L61.6 123.799L59.3 123.699L58.5 123.599L58 123.299L57.8 122.799L57.7 122.099L57.6 120.599L57.5 119.499L57.6 118.499V117.499L57.9 113.999V112.599L58 109.099L57.9 107.999L57.7 104.499L57.6 103.399L57.7 99.7994V94.0994L58 90.5994L57.9 89.4994L57.7 85.9994L57.6 84.8994V83.2994L57.7 81.2994V80.2994L57.9 76.7994L58 75.8994L58.2 75.3994L58.5 75.0994L59 74.9994L59.9 74.8994L64.2 75.1994L68.3 75.0994H69.4L73.4 75.3994H74.5L78.5 75.0994H79.6L88.7 75.1994L89.8 75.0994L92.1 74.8994H93.8L94.7 75.0994L95.1 75.3994L95.2 75.8994L95.3 76.7994V78.5994L95.2 80.2994V81.3994L95.3 83.0994L95.4 84.0994L95.3 85.0994L95.2 85.8994L94.9 86.3994L94.6 86.6994L93.8 86.7994H93.3L92.2 86.8994L85.9 86.7994H84.9L81.5 86.8994H80.4L76.9 86.7994L73.9 86.5994H72.9L72.4 86.6994L71.7 86.7994L71.4 87.0994L71.3 87.4994L71.2 88.1994L71.1 89.7994V90.8994L71.2 91.9994L71.3 92.6994L71.4 93.1994L71.7 93.4994L72.4 93.6994L74.5 93.7994L76.6 93.6994H82.9L90.4 93.2994L92.5 93.3994L93.2 93.4994L93.6 93.7994L93.8 94.1994L93.9 94.8994L94 95.9994L94.1 97.0994V99.2994L94.2 100.799L94.1 102.799L94 103.599L93.7 104.099L93.2 104.399L92.5 104.499H91.2L88.2 104.199L87.1 104.099L81.8 104.399L77.5 104.299H76.4L73.7 104.099L72.6 104.199L71.8 104.299L71.5 104.499L71.3 104.999L71.2 105.999L71 107.699L70.9 108.799V110.299L71 110.999L71.2 111.499L71.5 111.799L72.2 111.899L75.9 111.999H77L80.6 111.699L85.3 111.999H86.4L91.1 111.699H92.1L93.1 111.799L95.5 112.099L95.9 112.299L96.2 112.699L96.3 113.399L96.6 117.099Z" fill="currentColor"/>
<path d="M149.699 85.5998L149.599 86.6998V96.5998L149.799 100.5V101.6L149.899 110.4V111.5L149.799 112L149.699 113.1L149.499 116.3L149.599 120.2L149.499 121.1L149.199 121.9L148.699 122.6L147.999 123.1L147.399 123.3L146.499 123.4L143.099 123.5L141.999 123.6L140.299 123.7H139.199L138.299 123.5L137.499 123.2L136.699 122.6L136.099 121.7L135.099 119.8L134.499 118.9L131.899 115.6L131.199 114.8L128.899 111.6L128.299 110.7L125.999 107.2L125.399 106.4L122.799 103.2L122.099 102.4L119.599 99.0998L118.999 98.5998L118.499 98.7998L118.299 99.5998L118.199 102.9V104L118.299 107.3V108.4L118.399 112.1V113.2L118.199 116.9L118.299 118L118.699 120.7L118.799 121.8L118.599 122.7L118.099 123.2L117.599 123.3L116.799 123.4L116.299 123.5L115.199 123.6L112.099 123.5H110.899L108.199 123.6H107.099L106.099 123.5L105.399 123.4L104.899 123.1L104.599 122.6L104.499 121.9L104.399 121.4V120.4L104.499 118.2L104.599 117.1L104.399 113.6V112.6L104.499 104.5L104.599 103.4L104.799 99.8998L104.899 98.7998V94.1998L104.599 90.6998V89.5998L104.899 86.0998L104.799 84.9998L104.499 81.3998L104.399 80.2998V78.7998L104.499 77.7998L104.599 76.7998L104.699 76.0998L104.899 75.5998L105.299 75.3998L105.999 75.2998L107.999 75.1998L109.999 75.2998H114.999L115.799 75.3998L116.099 75.6998L116.499 76.2998L119.299 79.2998L119.999 80.0998L122.499 83.2998L123.199 84.0998L125.699 87.3998L126.399 88.1998L128.799 91.4998L129.399 92.2998L131.899 95.4998L132.599 96.2998L134.999 99.5998L135.499 100.1L135.999 100.2L136.499 99.8998V99.1998L135.999 96.3998L135.899 95.2998L136.099 92.3998V91.2998L135.799 87.1998V86.0998L136.099 81.9998L135.999 80.8998L135.799 78.3998V76.6998L135.999 75.7998L136.299 75.2998L136.799 74.9998L137.599 74.8998H138.199L139.299 74.7998L142.299 74.9998H143.399L145.699 74.8998L146.699 74.9998L148.199 75.0998L148.899 75.1998L149.399 75.3998L149.799 75.8998L149.899 76.7998L149.999 77.3998L150.099 78.4998L149.999 80.5998L149.899 81.6998L149.699 85.5998Z" fill="currentColor"/>
<path d="M198.499 80.3998L198.399 81.3998L198.499 83.3998L198.399 84.4998L198.299 84.9998L198.199 85.7998L197.999 86.2998L197.599 86.5998L196.799 86.6998H195.699L193.699 86.4998L192.599 86.3998L189.499 86.5998H188.399L186.699 86.4998H185.699L185.199 86.5998L184.499 86.7998L184.199 87.1998L184.099 88.0998L183.799 91.9998V93.0998L184.099 97.0998L183.999 98.1998L183.699 102.2L183.599 103.3L183.699 107.2V113.3L183.599 117.2L183.699 118.2L183.999 121.2L184.099 122.3L183.899 123.1L183.599 123.4L182.699 123.5L181.399 123.4L179.699 123.2L178.599 123.1L175.599 123.3H174.899L171.899 123.1L171.099 123L170.699 122.8L170.599 122.1V121L170.799 118.2L170.899 117.1V112.1L170.999 108.1V107L171.099 103.1V102L170.799 97.9998L170.699 96.8998V91.7998L170.599 87.8998V86.9998L170.399 86.4998L169.699 86.3998H168.699L166.599 86.4998H165.399L163.599 86.3998L162.499 86.2998L161.399 86.3998L159.899 86.4998H158.899L158.399 86.3998L157.699 86.2998L157.299 85.9998L156.999 85.5998L156.899 84.8998V84.3998L156.799 83.2998L156.899 81.2998V80.2998L156.699 77.7998L156.799 76.6998L156.999 75.7998L157.299 75.2998L157.699 75.0998L158.399 74.9998H159.899L162.399 75.1998H163.499L167.399 74.8998H168.499L172.399 75.1998H173.499L178.399 74.8998L182.299 74.9998H183.399L188.399 74.8998H193.299L195.499 74.7998L196.599 74.8998L197.099 74.9998L197.899 75.0998L198.399 75.3998L198.699 75.8998L198.799 76.6998V77.1998L198.899 78.1998L198.499 80.3998Z" fill="currentColor"/>
<path d="M250 99.8002L250.1 101.9L250 102.9L249.9 104.4L249.8 105.4L249.5 107L249.3 108.1L249 109.6L248.7 110.6L248.2 112L247.9 112.9L247.3 114.3L246.8 115.2L245.9 116.5L245.2 117.4L244.4 118.3L243.5 119L242.2 120.1L241.3 120.7L240 121.5L239.1 122L237.7 122.7L236.7 123L235.2 123.5L234.2 123.8L232.7 124.1L231.7 124.3L229.6 124.4H226.5L225 124.3L224 124.2L220.3 123.8L219.2 123.6L218.6 123.5L217.5 123.2L217 123L215.9 122.5L214.4 121.8L213.4 121.2L212.4 120.5L210.7 119L210 118.3L209.1 117.2L208.5 116.4L207.4 114.7L206.8 113.8L206.3 112.8L205.8 111.7L205.4 110.7L205.1 109.8L204.8 108.8L204.5 107.3L204.3 106.2L204.2 105.1L204.1 102.8L204 101.7L204.2 97.6002V96.5002L204.1 92.4002V91.3002L204.3 87.2002V81.0002L204.2 78.9002V77.8002L204.3 76.7002L204.5 75.6002L205 75.0002L205.9 74.8002L208.1 74.7002L210.6 74.9002H211.7L213.9 74.8002L214.9 74.9002L216.4 75.0002L217.3 75.2002L217.8 75.7002L218 76.6002L218.1 77.5002V78.5002L218 81.1002V82.2002L218.2 86.3002V87.4002L218.1 91.5002V92.6002L217.9 96.7002V97.8002L217.8 101.9L217.9 103L218 104.7L218.2 105.8L218.6 107.3L219 108.3L219.7 109.8L220.4 110.6L221.5 111.7L222.4 112.2L223.9 112.7L224.9 113L226.6 113.1H227.7L229.4 112.8L230.4 112.5L231.7 111.9L232.6 111.4L233.7 110.5L234.4 109.7L235.1 108.3L235.6 107.3L235.9 106.2L236.1 105.1L236.4 103.1L236.5 102L236.2 97.9002V96.8002L236.4 92.7002V91.6002L236.5 87.5002V86.4002L236.4 82.3002L236.3 81.2002L236.1 78.4002V76.7002L236.4 75.8002L237 75.3002L237.9 75.1002H239.3L242.7 75.4002H243.8L246.5 75.2002H247.6L248.6 75.3002L249.5 75.5002L250 76.0002L250.1 76.8002L250.2 78.8002V79.8002L250.1 81.3002V82.4002L250.3 86.5002V87.6002L250.2 91.7002V92.8002L249.9 96.9002L250 99.8002Z" fill="currentColor"/>
<path d="M303.499 123.1L302.599 123.4H297.899L294.199 123.3H293.099L290.099 123.4H289.199L288.599 123.1L288.099 122.6L285.999 119.6L285.399 118.8L283.299 115.9L282.699 115.1L280.799 112L280.199 111.2L278.099 108.3L277.599 107.8L277.199 107.6L276.399 107.5L274.299 107.4L273.399 107.5L272.899 107.9L272.699 108.8L272.599 112.5L272.699 113.6L272.999 117.3L273.099 118.4L273.199 120V121.1L273.099 122.2L272.999 123L272.699 123.3L271.999 123.5H270.899L267.699 123.3L264.599 123.5H263.499L260.399 123.3L259.599 123.2L259.199 122.9L259.099 122.2L258.999 121.3L258.899 120.3L258.999 118.6L259.099 117.5L259.399 113.9V112.8L259.199 109.2L259.099 108.1L258.999 104.6V103.5L259.199 99.9002V98.8002L258.999 95.2002V94.1002L259.199 90.5002V89.4002L259.299 85.9002V84.8002L259.199 81.2002V80.1002L259.099 77.9002L259.199 76.9002L259.299 76.5002L259.499 75.6002L259.899 75.1002L260.699 74.9002L261.199 74.8002L262.199 74.7002L265.199 74.8002L273.099 75.1002L277.599 74.8002H278.699L283.099 75.1002H285.599L286.699 75.2002L287.699 75.4002L289.099 75.8002L290.099 76.1002L291.099 76.5002L292.199 76.9002L293.199 77.4002L294.099 77.9002L295.399 78.8002L296.099 79.4002L296.799 80.1002L297.499 80.9002L298.399 82.2002L298.999 83.1002L299.799 84.4002L300.299 85.3002L300.799 86.3002L301.099 87.4002L301.299 88.5002L301.399 89.6002L301.499 91.1002V92.2002L301.399 93.3002L301.299 94.4002L301.099 95.5002L300.799 96.6002L300.399 97.6002L299.899 98.6002L299.299 99.6002L298.699 100.5L298.099 101.3L297.499 102L296.399 103.1L295.699 103.7L294.399 104.4L293.599 104.9L292.699 105.4L291.799 105.6L291.299 105.8L291.599 106.3L293.999 109.7L294.599 110.5L296.999 113.8L297.699 114.6L300.099 117.9L300.799 118.7L302.899 121.1L303.499 121.8L303.799 122.5L303.499 123.1ZM283.199 97.4002L284.699 97.1002L285.599 96.8002L286.399 96.3002L287.099 95.5002L287.599 94.5002L287.899 93.4002L287.999 92.3002L287.899 91.2002L287.799 90.1002L287.499 89.1002L286.999 88.1002L286.399 87.3002L285.699 86.7002L284.799 86.3002L283.299 86.0002L282.199 85.9002L278.899 85.8002H277.799L274.399 86.0002L273.599 86.1002L273.099 86.3002L272.699 86.7002L272.599 87.4002L272.699 88.9002L272.799 90.0002L272.899 91.1002L272.999 92.2002L272.899 95.9002V96.6002L272.999 97.0002L273.499 97.2002L274.299 97.3002L277.799 97.6002H278.899L283.199 97.4002Z" fill="currentColor"/>
<path d="M348.399 117.099L348.299 118.199L347.999 121.799L347.899 122.499L347.599 122.999L347.299 123.299L338.499 123.599H337.399L333.899 123.299L332.799 123.399L329.299 123.699L328.199 123.799H323.599L320.099 123.499H318.999L313.299 123.799L310.999 123.699L310.199 123.599L309.699 123.299L309.499 122.799L309.399 122.099L309.299 120.599L309.199 119.499L309.299 118.499V117.499L309.599 113.999V112.599L309.699 109.099L309.599 107.999L309.399 104.499L309.299 103.399L309.399 99.7994V94.0994L309.699 90.5994L309.599 89.4994L309.399 85.9994L309.299 84.8994V83.2994L309.399 81.2994V80.2994L309.599 76.7994L309.699 75.8994L309.899 75.3994L310.199 75.0994L310.699 74.9994L311.599 74.8994L315.899 75.1994L319.999 75.0994H321.099L325.099 75.3994H326.199L330.199 75.0994H331.299L340.399 75.1994L341.499 75.0994L343.799 74.8994H345.499L346.399 75.0994L346.799 75.3994L346.899 75.8994L346.999 76.7994V78.5994L346.899 80.2994V81.3994L346.999 83.0994L347.099 84.0994L346.999 85.0994L346.899 85.8994L346.599 86.3994L346.299 86.6994L345.499 86.7994H344.999L343.899 86.8994L337.599 86.7994H336.499L333.099 86.8994H331.999L328.499 86.7994L325.499 86.5994H324.499L323.999 86.6994L323.299 86.7994L322.999 87.0994L322.899 87.4994L322.799 88.1994L322.699 89.7994V90.8994L322.799 91.9994L322.899 92.6994L322.999 93.1994L323.299 93.4994L323.999 93.6994L326.099 93.7994L328.199 93.6994H334.499L341.999 93.2994L344.099 93.3994L344.799 93.4994L345.199 93.7994L345.399 94.1994L345.499 94.8994L345.599 95.9994L345.699 97.0994V99.2994L345.799 100.799L345.699 102.799L345.599 103.599L345.299 104.099L344.799 104.399L344.099 104.499H342.799L339.799 104.199L338.699 104.099L333.399 104.399L329.099 104.299H327.999L325.299 104.099L324.199 104.199L323.399 104.299L323.099 104.499L322.899 104.999L322.799 105.999L322.599 107.699L322.499 108.799V110.299L322.599 110.999L322.799 111.499L323.099 111.799L323.799 111.899L327.499 111.999H328.599L332.199 111.699L336.899 111.999H337.999L342.699 111.699H343.699L344.699 111.799L347.099 112.099L347.499 112.299L347.799 112.699L347.899 113.399L348.399 117.099Z" fill="currentColor"/>
<path d="M396.6 108.4L396.5 109.5L396.4 110.6L396.2 111.7L395.9 113.2L395.6 114.1L395 115.4L394.5 116.3L393.7 117.5L393 118.3L392.2 119.1L391.4 119.8L390.1 120.7L389.2 121.3L388.2 121.8L387.3 122.3L385.8 122.8L383.8 123.5L382.7 123.7L381 124L380 124.1L378.5 124.2L377.6 124.3L376.1 124.4L372.9 124.6H371.4L370.5 124.5L369 124.4L368 124.3L366.9 124.1L365.9 123.8L364.4 123.3L363.5 122.8L362.5 122.3L361.6 121.8L360.7 121.3L358.6 119.8L357.8 119.1L356.6 118.2L355.8 117.5L355.1 116.8L354.6 116.2L354.5 115.7L354.8 115.1L355.1 114.8L355.8 114.1L357.7 112.4L358.3 111.7L359.4 110L360 109.3L360.7 108.6L361.4 108.2L362.1 108.3L362.8 108.8L364.9 110.3L365.9 110.8L366.8 111.3L368.3 112L369.3 112.3L370.4 112.6L371.5 112.8L373 112.9L374.1 113L378.3 112.7L379.4 112.6L379.9 112.5L380.9 112.1L381.8 111.6L382.5 110.9L382.8 110.4L383.2 109.4L383.1 108.3L383 107.8L382.5 106.9L382.2 106.5L381.3 105.8L380.8 105.6L379.8 105.2L378.7 104.9L377.6 104.7L371.3 104.1L369.3 103.7L368.2 103.4L366.7 102.9L365.7 102.6L364.7 102.1L362.4 101L361.5 100.4L360.5 99.8L359.6 99.2L358.5 98.3L357.9 97.4L357.3 96.4L356.9 95.4L356.4 94L356.2 93L356 91.5L355.9 89.4L356 88.3L356.1 86.7L356.3 85.7L356.6 84.8L356.9 83.8L357.6 82.3L358.1 81.4L358.6 80.6L359.3 79.9L360.4 78.9L361.3 78.2L362.2 77.6L363.1 77.1L364.4 76.4L366.4 75.6L367.4 75.3L368.9 75L370 74.8L372 74.5L373.5 74.2L374.6 74.1L375.6 74H376.7L378.7 74.2L379.7 74.3L380.2 74.4L381.3 74.5L383.6 74.9L384.7 75.2L385.8 75.5L386.9 75.8L388 76.2L389 76.7L390 77.1L391.3 77.8L392.2 78.3L393.1 78.9L393.7 79.5V80.2L393.3 80.9L392.6 82.2L392.1 83L389.6 86.3L388.9 87.2L388.1 87.9L387.6 88.1L387.1 88L386.4 87.7L385.4 87.1L384.4 86.7L383.9 86.5L382.9 86.2L382.4 86.1L381.3 85.8L379.8 85.5L378.7 85.4L377 85.3H375.3L374.2 85.4L373.1 85.6L372 85.9L371.6 86.1L370.8 86.7L370.5 87.1L370 88L369.9 89.1L370.1 90L370.6 90.9L371.3 91.6L372.1 92L372.6 92.2L373.6 92.4L375.3 92.6L377.6 92.7L378.7 92.9L381 93.4L383.1 94.1L384.6 94.4L385.6 94.7L387.5 95.4L388.8 96L389.7 96.5L390.6 97L391.5 97.5L393.4 99.1L394.1 99.9L394.8 100.7L395.6 101.9L396.1 102.8L396.6 103.8L396.9 104.8L397.2 106.3L397.3 107.3L396.6 108.4Z" fill="currentColor"/>
</svg>
