<svg width="1322" height="215" viewBox="0 0 1322 215" fill="currentColor" xmlns="http://www.w3.org/2000/svg">
<path d="M378.7 81.9999C378.7 111.8 364.1 137.1 341.9 149L384.5 211.4H322.4L291.4 160H254.9V211.4H205V4.3999H305.1C347.1 4.3999 378.7 36.8999 378.7 81.9999ZM254.8 50.5999V113.6H297.7C314.7 113.6 328.4 99.2999 328.4 81.8999C328.4 64.8999 314.7 50.4999 298 50.4999H254.8V50.5999Z" fill="currentColor"/>
<path d="M627.7 161.1C609.1 192.1 574.7 215 530.9 215C466.1 215 418.9 167.5 418.9 106.3C418.9 48.8002 466.1 0.700195 530.9 0.700195C575 0.700195 609.7 21.4002 628.3 52.4002L586 77.1002C576.3 58.2002 557.1 45.7002 530.9 45.7002C494.7 45.7002 469.4 72.2002 469.4 106.3C469.4 139.2 494.7 168.1 530.9 168.1C556.5 168.1 575.3 155 585.4 136.7L627.7 161.1Z" fill="currentColor"/>
<path d="M865.7 50.5999H792.3V211.3H741.8V50.5999H668.4V4.3999H865.6V50.5999H865.7Z" fill="currentColor"/>
<path d="M1117 211.3H1066.8L962.001 84.6998V211.3H911.801V4.2998H962.001L1066.7 130.6V4.3998H1116.9V211.3H1117Z" fill="currentColor"/>
<path d="M1213 165.1H1321.7V211.4H1163.1V4.3999H1213V165.1Z" fill="currentColor"/>
<path d="M142.2 96.7002H96.0996V142.8H142.2V96.7002Z" fill="currentColor"/>
<path d="M50.1992 98.0999V68.6999V50.5999H158.799V4.3999H0.199219V211.3H50.1992V195.3V144.1V98.0999Z" fill="currentColor"/>
</svg>
