<svg width="2701" height="562" viewBox="0 0 2701 562" fill="currentColor" xmlns="http://www.w3.org/2000/svg">
<path d="M284.4 54.8001C257.1 43.0001 223.6 37.1001 183.9 37.1001H0V554.2H94.5V374.6H186.1C225 374.6 258 368.5 285.1 356.3C312.2 344.1 332.7 325.4 346.8 300.2C360.8 275 367.9 242.9 367.9 204C367.9 165.6 360.8 134.1 346.7 109.5C332.6 84.9001 311.7 66.6001 284.4 54.8001ZM247.7 273.8C231.6 288.3 207.4 295.6 175.1 295.6H94.6V116.1H172.9C206.1 116.1 230.9 123.2 247.3 137.5C263.7 151.8 271.9 174.4 271.9 205.5C271.9 236.6 263.8 259.3 247.7 273.8Z" fill="currentColor"/>
<path d="M672.4 203.8C644.1 186.2 609.9 177.4 569.7 177.4C529.6 177.4 495.3 186.2 467 203.8C438.7 221.4 417.1 244.9 402.2 274.2C387.3 303.5 379.9 335.5 379.9 370.2C379.9 404.7 387.3 436.4 402.2 465.5C417.1 494.6 438.7 517.8 467 535.3C495.3 552.8 529.5 561.5 569.7 561.5C609.8 561.5 644.1 552.8 672.4 535.3C700.7 517.8 722.3 494.5 737.2 465.5C752.1 436.4 759.5 404.7 759.5 370.2C759.5 335.5 752 303.5 737.2 274.2C722.3 244.9 700.7 221.4 672.4 203.8ZM640.8 453.9C624.2 475.5 600.5 486.2 569.7 486.2C539.2 486.2 515.5 475.4 498.8 453.9C482 432.4 473.7 404.5 473.7 370.3C473.7 335.6 482.1 307.3 498.8 285.5C515.5 263.7 539.2 252.8 569.7 252.8C600.5 252.8 624.2 263.7 640.8 285.5C657.4 307.3 665.7 335.5 665.7 370.3C665.7 404.4 657.4 432.3 640.8 453.9Z" fill="currentColor"/>
<path d="M1055.1 384.2C1046.7 375.6 1036.2 367.7 1023.5 360.6C1010.8 353.5 995.9 346.6 978.6 339.9C952 329.6 932.7 320.8 920.6 313.7C908.5 306.6 902.5 295.9 902.5 281.6C902.5 269.8 906.8 260.7 915.4 254.3C924 247.9 936.2 244.7 952 244.7C972 244.7 990.3 248.5 1007 256C1023.7 263.5 1040.4 273 1056.9 284.6L1065 206.3C1049.2 197.4 1032.1 190.4 1013.5 185.2C994.9 180 973.9 177.4 950.5 177.4C922.4 177.4 898.2 182 877.7 191.1C857.3 200.2 841.5 212.9 830.4 229.1C819.3 245.3 813.8 264.1 813.8 285.2C813.8 305.6 817.9 322.8 826.2 336.7C834.5 350.6 846.5 362.5 862.4 372.3C878.3 382.2 897.5 391.3 920.2 399.6C935.2 405.3 947.8 410.6 957.9 415.5C968 420.4 975.6 426 980.6 432.1C985.6 438.3 988.2 446.1 988.2 455.7C988.2 468.5 983.4 477.9 973.8 483.8C964.2 489.7 950.3 492.7 932.1 492.7C911.9 492.7 892.6 489.3 874.3 482.5C856 475.7 837.3 466.8 818.3 455.7L810.2 534C829.9 542.9 849.5 549.6 869.1 554.3C888.7 559 910.7 561.3 935 561.3C966 561.3 992.3 557 1013.9 548.4C1035.4 539.8 1051.8 527.3 1063 510.9C1074.2 494.5 1079.8 474.7 1079.8 451.3C1079.8 437 1077.8 424.4 1073.7 413.5C1069.6 402.6 1063.4 392.9 1055.1 384.2Z" fill="currentColor"/>
<path d="M1643.4 479.7C1629.2 484 1614.9 486.2 1600.4 486.2C1566.4 486.2 1539.4 475.1 1519.5 452.8C1499.6 430.5 1489.6 403 1489.6 370.3C1489.6 335.8 1499.3 307.9 1518.8 286.5C1538.3 265.1 1565.7 254.4 1601.2 254.4C1616.7 254.4 1631.5 256.4 1645.7 260.3C1659.9 264.2 1672.6 269.2 1683.9 275.1L1691.3 201.2C1679.5 194.6 1665.2 189 1648.5 184.4C1631.8 179.8 1613.1 177.6 1592.4 177.6C1548.6 177.6 1512.1 186.3 1483.1 203.8C1454 221.3 1432.3 244.6 1417.7 273.8C1403.2 303 1395.9 335.2 1395.9 370.4C1395.9 405.4 1403.2 437.3 1417.9 466.2C1432.5 495.1 1454.2 518.3 1482.9 535.6C1511.6 553 1547.1 561.6 1589.4 561.6C1609.4 561.6 1628.4 559.6 1646.5 555.5C1664.6 551.4 1680.1 546.1 1692.8 539.4L1684.7 461.8C1671.3 469.4 1657.5 475.4 1643.4 479.7Z" fill="currentColor"/>
<path d="M2242 200.3C2225 210.6 2211.8 221 2202.5 231.3L2200.3 192.2H2114.6V561.5H2206.2V333.7C2247.6 271.4 2314.1 285.6 2314.1 285.6V186.3C2309.2 185.3 2303.8 184.8 2297.8 184.8C2277.6 184.8 2259 190 2242 200.3Z" fill="currentColor"/>
<path d="M2608.8 0.0999985V208.4C2600.3 202.4 2591.2 197 2581.5 192.3C2562.8 183.3 2539.9 178.8 2512.8 178.8C2475.4 178.8 2443.9 187.5 2418.4 205C2392.9 222.5 2373.7 245.8 2360.8 274.8C2347.9 303.9 2341.4 335.6 2341.4 370.1C2341.4 404.6 2347.9 436.3 2360.8 465.4C2373.7 494.5 2392.9 517.7 2418.4 535.2C2443.9 552.7 2475.3 561.4 2512.8 561.4C2540.9 561.4 2564.1 556.8 2582.6 547.7C2592.7 542.7 2602.6 536.7 2612.3 529.7L2614 554H2700.4V0H2608.8V0.0999985ZM2575.5 471.4C2562.7 481.2 2546.2 486.2 2526 486.2C2506.8 486.2 2490.4 481.3 2476.9 471.4C2463.4 461.5 2453 447.9 2445.9 430.6C2438.8 413.2 2435.2 393.1 2435.2 370.2C2435.2 347.3 2438.8 327.2 2445.9 309.8C2453 292.4 2463.4 278.8 2476.9 269C2490.4 259.2 2506.8 254.2 2526 254.2C2546.2 254.2 2562.7 259.1 2575.5 269C2588.3 278.9 2597.8 292.5 2603.9 309.8C2610.1 327.2 2613.1 347.3 2613.1 370.2C2613.1 393.1 2610 413.2 2603.9 430.6C2597.8 448 2588.3 461.6 2575.5 471.4Z" fill="currentColor"/>
<path d="M1978.9 193.7C1958.9 183.9 1935.2 178.9 1907.6 178.9C1884.7 178.9 1862.1 181.6 1839.8 187C1817.5 192.4 1795.3 200.5 1773.1 211.4L1781.2 286C1800.9 276.4 1818.6 269.3 1834.2 264.8C1849.8 260.2 1865.9 258 1882.4 258C1906 258 1922.8 262.8 1932.6 272.4C1942.4 282 1947.9 297.4 1948.8 318.6C1935 319.1 1919.1 320.7 1901 323.4C1882.9 326.1 1864.6 330.4 1846 336.1C1827.4 341.9 1810.2 349.8 1794.3 359.7C1778.4 369.7 1765.6 382.1 1755.9 397C1746.2 411.9 1741.3 429.8 1741.3 450.7C1741.3 474.1 1746.1 494 1755.7 510.5C1765.3 527 1778.2 539.6 1794.5 548.4C1810.7 557.1 1828.7 561.5 1848.4 561.5C1870.6 561.5 1891.9 557.7 1912.5 550.2C1927 544.9 1939.3 538 1949.6 529.7V561.5H2040.7V380.5L2041.2 381.2V327.3C2041.2 291.6 2035.8 262.9 2025 241.1C2014.2 219.3 1998.9 203.5 1978.9 193.7ZM1917.2 484.9C1905.1 489.2 1895 491.4 1886.9 491.4C1869.7 491.4 1857.1 487.8 1849.2 480.5C1841.3 473.2 1837.4 462.1 1837.4 447.1C1837.4 432.6 1843.2 420.5 1854.8 410.9C1866.4 401.3 1880.8 394 1898 389.1C1915.2 384.2 1932.5 381.3 1949.7 380.6V464.8C1940.1 473.9 1929.3 480.6 1917.2 484.9Z" fill="currentColor"/>
<path d="M1272.3 165.4V107.9L1180.7 94V103.6V165.4V184.8H1136.4H1128.3V260.1H1180.8V464.7C1180.8 480.7 1184.2 496.1 1191.1 510.9C1198 525.7 1208.7 537.8 1223.2 547.3C1237.7 556.8 1256.6 561.5 1279.7 561.5H1345.4L1353.5 486.2H1328.4C1311.2 486.2 1298.6 485.2 1290.7 483.1C1282.8 481 1277.8 475.8 1275.6 467.6C1273.4 459.3 1272.3 445.9 1272.3 427.2V260.1H1353.6V184.8H1272.3V165.4Z" fill="currentColor"/>
</svg>
